<svg id="svg" version="1.1" xmlns="http://www.w3.org/2000/svg" xmlns:xlink="http://www.w3.org/1999/xlink" width="400" height="70.53140096618358" viewBox="0, 0, 400,70.53140096618358"><g id="svgg"><path id="path0" d="M91.302 0.827 C 91.056 0.903,90.812 0.936,90.761 0.899 C 90.709 0.863,90.699 0.878,90.738 0.932 C 90.777 0.986,90.404 1.243,89.910 1.503 C 89.127 1.916,87.837 2.914,88.500 2.595 C 88.638 2.529,88.604 2.593,88.426 2.738 C 88.249 2.882,88.038 3.000,87.958 3.000 C 87.879 3.000,87.854 3.065,87.903 3.144 C 87.952 3.224,87.844 3.423,87.663 3.587 C 87.482 3.751,87.333 4.007,87.333 4.155 C 87.333 4.304,87.230 4.574,87.104 4.755 C 86.635 5.427,86.567 9.517,87.030 9.231 C 87.118 9.177,87.169 9.234,87.145 9.358 C 87.082 9.680,87.328 10.333,87.511 10.333 C 87.597 10.333,87.651 10.390,87.631 10.458 C 87.527 10.826,89.256 12.750,89.690 12.750 C 89.776 12.750,89.899 12.834,89.964 12.936 C 90.030 13.038,90.271 13.179,90.500 13.250 C 90.729 13.321,90.970 13.462,91.036 13.564 C 91.212 13.840,94.822 13.809,95.433 13.526 C 96.271 13.139,96.738 12.900,97.139 12.655 C 97.789 12.257,98.618 11.417,98.740 11.031 C 98.804 10.831,98.923 10.667,99.005 10.667 C 99.086 10.667,99.306 10.171,99.493 9.566 C 100.131 7.502,99.836 4.675,98.881 3.696 C 98.763 3.575,98.667 3.409,98.667 3.328 C 98.667 3.013,97.215 1.763,96.419 1.392 C 95.959 1.178,95.658 0.994,95.750 0.982 C 95.842 0.970,95.692 0.908,95.417 0.843 C 94.696 0.675,91.830 0.663,91.302 0.827 M169.458 0.778 C 169.206 0.820,169.000 0.920,169.000 0.998 C 169.000 1.076,168.775 1.190,168.500 1.250 C 168.225 1.310,168.000 1.433,168.000 1.523 C 168.000 1.613,167.930 1.643,167.845 1.590 C 167.759 1.538,167.572 1.662,167.428 1.868 C 167.284 2.073,167.167 2.182,167.167 2.110 C 167.167 1.843,165.831 3.534,165.733 3.926 C 165.677 4.150,165.565 4.333,165.484 4.333 C 165.403 4.333,165.289 4.633,165.231 5.000 C 165.172 5.367,165.059 5.667,164.979 5.667 C 164.785 5.667,164.792 8.046,164.986 8.534 C 165.070 8.744,165.230 9.275,165.342 9.713 C 165.454 10.151,165.722 10.676,165.937 10.880 C 166.152 11.083,166.329 11.305,166.330 11.372 C 166.334 11.514,167.500 12.741,167.500 12.603 C 167.500 12.552,167.773 12.695,168.107 12.922 C 168.440 13.148,168.809 13.333,168.926 13.333 C 169.043 13.333,169.170 13.427,169.208 13.542 C 169.323 13.884,173.278 13.806,173.917 13.448 C 174.192 13.295,174.515 13.168,174.635 13.168 C 174.755 13.167,174.810 13.097,174.757 13.012 C 174.705 12.927,174.812 12.810,174.995 12.752 C 175.436 12.612,176.537 11.534,176.826 10.958 C 176.953 10.706,177.119 10.500,177.195 10.500 C 177.271 10.500,177.333 10.387,177.333 10.250 C 177.333 10.112,177.403 10.000,177.488 10.000 C 177.573 10.000,177.694 9.587,177.757 9.083 C 177.820 8.579,177.942 8.167,178.028 8.167 C 178.114 8.167,178.168 7.679,178.149 7.083 C 178.130 6.487,178.059 6.000,177.993 6.000 C 177.926 6.000,177.821 5.668,177.760 5.262 C 177.700 4.856,177.498 4.331,177.313 4.095 C 177.127 3.859,177.022 3.667,177.078 3.667 C 177.199 3.667,176.909 3.296,176.333 2.714 C 176.104 2.483,175.937 2.222,175.962 2.134 C 175.988 2.047,175.934 2.021,175.844 2.077 C 175.753 2.133,175.542 2.045,175.374 1.881 C 174.414 0.942,171.590 0.415,169.458 0.778 M144.750 1.737 C 144.475 1.834,144.195 1.988,144.128 2.081 C 144.047 2.192,144.003 2.193,144.000 2.083 C 143.997 1.975,143.952 1.976,143.872 2.087 C 143.805 2.180,143.563 2.348,143.333 2.461 C 142.842 2.701,142.284 3.044,142.167 3.179 C 142.092 3.265,141.926 3.339,141.417 3.515 C 141.325 3.547,141.093 3.743,140.900 3.950 C 140.708 4.158,140.501 4.279,140.442 4.220 C 140.382 4.160,140.333 4.194,140.333 4.294 C 140.333 4.395,140.165 4.530,139.958 4.594 C 139.752 4.657,139.096 5.021,138.500 5.401 C 136.868 6.443,136.786 6.491,136.292 6.685 C 136.040 6.785,135.833 6.916,135.833 6.978 C 135.833 7.040,135.483 7.276,135.054 7.503 C 134.283 7.913,133.167 8.855,133.167 9.098 C 133.167 9.167,133.035 9.369,132.875 9.546 C 132.568 9.886,132.322 39.167,132.627 39.167 C 132.695 39.167,132.755 39.523,132.761 39.958 C 132.777 41.109,133.631 44.147,133.871 43.907 C 133.920 43.858,134.010 44.084,134.071 44.409 C 134.132 44.734,134.248 45.000,134.330 45.000 C 134.411 45.000,134.527 45.156,134.588 45.347 C 134.805 46.032,137.484 48.812,138.358 49.260 C 138.665 49.418,138.954 49.592,139.000 49.648 C 139.159 49.842,140.621 50.500,140.893 50.500 C 141.044 50.500,141.167 50.565,141.167 50.645 C 141.167 50.725,141.478 50.841,141.859 50.901 C 142.240 50.962,142.634 51.064,142.734 51.126 C 143.675 51.715,148.547 51.324,147.932 50.710 C 147.897 50.675,148.053 50.447,148.279 50.203 C 148.505 49.959,148.731 49.551,148.782 49.297 C 148.833 49.042,148.941 48.833,149.021 48.833 C 149.103 48.833,149.168 43.131,149.169 35.792 C 149.171 23.192,149.210 21.704,149.521 22.194 C 149.629 22.365,149.662 22.348,149.664 22.125 C 149.666 21.965,149.777 21.833,149.911 21.833 C 150.045 21.833,150.226 21.701,150.313 21.539 C 150.399 21.377,150.748 21.144,151.087 21.022 C 151.426 20.899,151.970 20.617,152.297 20.396 C 152.623 20.174,153.384 19.753,153.987 19.460 C 154.590 19.167,155.122 18.875,155.168 18.810 C 155.215 18.746,155.453 18.643,155.698 18.582 C 155.942 18.520,156.183 18.364,156.233 18.235 C 156.282 18.106,156.480 18.000,156.671 18.000 C 156.863 18.000,156.973 17.925,156.917 17.833 C 156.860 17.742,156.919 17.667,157.047 17.667 C 157.339 17.667,158.336 16.586,158.413 16.186 C 158.445 16.022,158.568 15.562,158.687 15.164 C 158.856 14.602,158.859 14.425,158.702 14.373 C 158.591 14.336,158.500 14.102,158.500 13.853 C 158.500 12.074,156.913 11.299,153.323 11.325 C 151.058 11.341,150.604 11.301,150.210 11.051 C 149.590 10.657,149.167 10.172,149.163 9.849 C 149.161 9.703,149.153 8.365,149.145 6.876 C 149.137 5.335,149.067 4.209,148.982 4.261 C 148.900 4.312,148.833 4.166,148.833 3.938 C 148.833 2.546,146.316 1.190,144.750 1.737 M386.500 1.713 C 386.500 1.810,386.453 1.842,386.396 1.785 C 386.297 1.686,384.674 2.427,384.500 2.651 C 384.374 2.812,383.434 3.407,383.297 3.412 C 383.231 3.415,383.024 3.548,382.837 3.708 C 382.649 3.869,382.385 4.000,382.248 4.000 C 382.112 4.000,382.000 4.071,382.000 4.158 C 382.000 4.308,381.516 4.619,380.704 4.989 C 380.495 5.084,380.159 5.316,379.957 5.504 C 379.755 5.692,379.420 5.889,379.212 5.941 C 379.004 5.993,378.833 6.092,378.833 6.159 C 378.833 6.227,378.533 6.418,378.167 6.583 C 377.800 6.749,377.500 6.948,377.500 7.025 C 377.500 7.103,377.444 7.153,377.375 7.137 C 377.199 7.094,376.169 7.724,376.168 7.875 C 376.167 7.944,376.073 8.002,375.958 8.006 C 375.459 8.019,374.333 9.390,374.333 9.984 C 374.333 10.176,374.261 10.333,374.172 10.333 C 373.968 10.333,373.940 38.973,374.144 39.233 C 374.223 39.334,374.333 39.932,374.389 40.561 C 374.445 41.190,374.558 41.790,374.640 41.894 C 374.723 41.998,374.838 42.352,374.897 42.680 C 375.045 43.502,376.412 46.011,377.083 46.690 C 377.387 46.998,377.600 47.306,377.558 47.375 C 377.515 47.444,377.602 47.500,377.750 47.500 C 377.898 47.500,377.973 47.575,377.917 47.667 C 377.860 47.758,377.878 47.833,377.956 47.833 C 378.034 47.833,378.527 48.196,379.052 48.640 C 379.577 49.084,380.211 49.542,380.461 49.658 C 380.712 49.774,381.254 50.022,381.667 50.209 C 382.079 50.396,382.532 50.604,382.672 50.670 C 382.813 50.737,383.188 50.847,383.505 50.915 C 383.823 50.983,384.173 51.111,384.284 51.200 C 384.653 51.497,388.914 51.432,388.729 51.132 C 388.684 51.059,388.753 51.000,388.882 51.000 C 389.204 51.000,389.935 50.300,390.076 49.857 C 390.139 49.658,390.250 49.532,390.323 49.577 C 390.615 49.757,390.667 47.608,390.667 35.382 C 390.667 25.426,390.712 22.592,390.875 22.411 C 391.647 21.550,391.882 21.369,392.402 21.239 C 392.639 21.179,392.833 21.064,392.833 20.982 C 392.833 20.900,392.934 20.833,393.058 20.833 C 393.181 20.833,393.455 20.683,393.667 20.500 C 393.878 20.317,394.146 20.167,394.262 20.167 C 394.377 20.167,394.497 20.110,394.528 20.042 C 394.558 19.973,395.033 19.692,395.583 19.417 C 396.133 19.142,396.622 18.866,396.668 18.805 C 396.715 18.743,396.959 18.642,397.210 18.578 C 397.461 18.515,397.667 18.403,397.667 18.329 C 397.667 18.254,397.892 18.144,398.168 18.083 C 398.444 18.022,398.629 17.908,398.580 17.828 C 398.531 17.749,398.660 17.593,398.867 17.482 C 400.824 16.435,400.148 11.540,398.042 11.506 C 397.835 11.503,397.667 11.444,397.667 11.375 C 397.667 11.306,396.658 11.276,395.425 11.307 C 392.974 11.370,391.677 11.178,391.136 10.674 C 390.736 10.302,390.696 9.957,390.618 6.299 C 390.573 4.194,390.522 3.800,390.257 3.508 C 390.087 3.320,390.002 3.167,390.068 3.167 C 390.264 3.167,389.120 2.162,388.627 1.901 C 388.376 1.769,388.132 1.661,388.085 1.663 C 388.038 1.665,387.981 1.657,387.958 1.645 C 387.715 1.521,386.500 1.577,386.500 1.713 M42.167 2.664 C 42.354 2.787,42.255 2.829,41.776 2.831 C 41.423 2.832,40.900 2.965,40.612 3.125 C 40.012 3.460,39.579 3.831,39.780 3.838 C 39.855 3.841,39.785 3.920,39.625 4.013 C 39.465 4.107,39.333 4.330,39.333 4.508 C 39.333 4.687,39.258 4.833,39.167 4.833 C 39.056 4.833,39.000 12.167,39.000 26.500 C 39.000 40.833,39.056 48.167,39.167 48.167 C 39.258 48.167,39.333 48.312,39.333 48.490 C 39.333 48.896,40.083 49.710,40.783 50.064 C 41.423 50.387,57.388 50.482,57.585 50.164 C 57.643 50.071,57.760 50.038,57.845 50.090 C 57.930 50.143,58.000 50.107,58.000 50.010 C 58.000 49.913,58.117 49.833,58.260 49.833 C 58.403 49.833,58.477 49.764,58.424 49.679 C 58.372 49.594,58.473 49.478,58.649 49.422 C 58.826 49.366,59.070 49.196,59.193 49.045 C 59.384 48.809,59.380 48.790,59.167 48.913 C 58.989 49.016,59.001 48.961,59.208 48.724 C 59.369 48.540,59.500 48.265,59.500 48.112 C 59.500 47.959,59.573 47.833,59.662 47.833 C 59.763 47.833,59.824 45.751,59.824 42.251 C 59.824 36.276,59.860 36.006,60.682 35.745 C 60.857 35.690,61.000 35.585,61.000 35.514 C 61.000 35.442,61.844 35.330,62.875 35.266 C 65.300 35.114,65.167 35.130,65.167 34.991 C 65.167 34.926,65.579 34.820,66.083 34.757 C 66.587 34.694,67.000 34.576,67.000 34.496 C 67.000 34.415,67.262 34.299,67.583 34.239 C 67.904 34.179,68.167 34.063,68.167 33.981 C 68.167 33.900,68.259 33.833,68.373 33.833 C 68.691 33.833,70.333 32.964,70.333 32.796 C 70.333 32.714,70.403 32.690,70.489 32.743 C 70.574 32.796,70.744 32.706,70.866 32.544 C 70.988 32.383,71.206 32.175,71.351 32.083 C 72.236 31.520,72.988 30.886,72.994 30.698 C 72.997 30.579,73.075 30.527,73.167 30.583 C 73.258 30.640,73.333 30.610,73.333 30.516 C 73.333 30.422,73.680 30.013,74.104 29.607 C 74.623 29.109,74.832 28.795,74.744 28.642 C 74.672 28.518,74.673 28.470,74.745 28.536 C 74.918 28.692,75.346 28.122,75.835 27.083 C 76.050 26.625,76.279 26.212,76.343 26.167 C 76.406 26.121,76.511 25.839,76.576 25.540 C 76.641 25.241,76.750 25.032,76.819 25.075 C 76.888 25.117,76.953 25.062,76.964 24.951 C 77.013 24.433,77.373 23.042,77.551 22.683 C 77.837 22.108,77.828 15.761,77.542 15.475 C 77.427 15.360,77.333 15.099,77.333 14.894 C 77.333 14.689,77.246 14.311,77.140 14.053 C 77.033 13.794,76.956 13.533,76.968 13.472 C 76.981 13.412,76.769 12.924,76.497 12.389 C 76.226 11.854,76.003 11.353,76.002 11.274 C 76.001 11.196,75.775 10.798,75.500 10.391 C 75.225 9.983,75.000 9.621,75.000 9.586 C 75.000 9.510,73.845 8.217,72.958 7.300 C 72.615 6.944,72.333 6.577,72.333 6.483 C 72.333 6.390,72.258 6.360,72.167 6.417 C 72.075 6.473,72.000 6.440,72.000 6.343 C 72.000 6.246,71.887 6.167,71.750 6.167 C 71.612 6.167,71.500 6.088,71.500 5.991 C 71.500 5.895,71.275 5.738,71.000 5.642 C 70.725 5.546,70.539 5.405,70.586 5.329 C 70.633 5.253,70.502 5.138,70.294 5.073 C 70.087 5.008,69.879 4.900,69.833 4.833 C 69.718 4.664,67.872 3.833,67.612 3.833 C 67.495 3.833,67.318 3.751,67.217 3.651 C 67.117 3.550,66.746 3.430,66.392 3.383 C 66.039 3.337,65.657 3.223,65.544 3.131 C 65.431 3.039,64.700 2.924,63.919 2.875 C 63.139 2.826,62.500 2.726,62.500 2.652 C 62.500 2.579,57.869 2.514,52.208 2.509 C 45.399 2.503,42.001 2.556,42.167 2.664 M111.167 2.676 C 111.167 2.763,110.904 2.833,110.583 2.833 C 110.263 2.833,110.000 2.913,110.000 3.010 C 110.000 3.107,109.939 3.148,109.864 3.102 C 109.725 3.016,109.186 3.474,108.583 4.188 C 108.254 4.579,108.250 4.826,108.250 26.612 L 108.250 48.640 108.667 49.090 C 108.896 49.337,109.363 49.718,109.705 49.937 L 110.327 50.333 116.247 50.333 C 122.550 50.333,122.709 50.315,123.542 49.482 C 123.920 49.104,124.359 48.177,124.247 47.995 C 124.192 47.906,124.226 47.833,124.323 47.833 C 124.668 47.833,124.549 5.373,124.203 4.667 C 123.880 4.009,123.330 3.333,123.118 3.333 C 123.040 3.333,122.864 3.221,122.726 3.083 C 122.510 2.867,121.961 2.761,121.208 2.789 C 121.094 2.793,121.000 2.728,121.000 2.644 C 121.000 2.555,118.955 2.497,116.083 2.505 C 113.120 2.513,111.167 2.581,111.167 2.676 M201.003 2.600 C 201.001 2.712,200.428 2.824,199.543 2.887 C 198.742 2.943,198.061 3.067,198.030 3.161 C 197.998 3.256,197.847 3.333,197.694 3.333 C 197.101 3.333,194.169 4.555,194.165 4.804 C 194.164 4.866,193.855 5.064,193.479 5.244 C 193.103 5.425,192.758 5.668,192.713 5.786 C 192.668 5.904,192.554 6.000,192.461 6.000 C 192.367 6.000,191.894 6.412,191.410 6.917 C 190.925 7.421,190.443 7.833,190.338 7.833 C 190.233 7.833,190.195 7.911,190.254 8.007 C 190.313 8.102,190.167 8.333,189.929 8.520 C 189.691 8.707,189.532 8.918,189.576 8.988 C 189.620 9.059,189.518 9.264,189.350 9.444 C 188.978 9.843,188.583 10.538,188.631 10.708 C 188.651 10.777,188.592 10.833,188.500 10.833 C 188.408 10.833,188.333 10.940,188.333 11.071 C 188.333 11.202,188.215 11.427,188.071 11.571 C 187.927 11.715,187.853 11.833,187.907 11.833 C 187.961 11.833,187.882 12.115,187.732 12.458 C 187.397 13.227,187.136 14.266,187.126 14.870 C 187.122 15.119,187.055 15.284,186.977 15.236 C 186.899 15.188,186.842 15.321,186.849 15.533 C 186.857 15.744,186.854 19.014,186.844 22.799 C 186.823 30.124,186.851 30.410,187.660 31.167 C 188.040 31.523,189.000 32.043,189.000 31.893 C 189.000 31.823,189.090 31.857,189.200 31.967 C 189.351 32.118,191.923 32.167,199.753 32.167 L 210.106 32.167 210.761 32.750 L 211.417 33.332 211.412 38.625 C 211.408 44.191,211.399 44.300,210.949 44.797 C 210.793 44.969,210.722 45.173,210.791 45.249 C 210.860 45.325,210.831 45.338,210.727 45.279 C 210.623 45.219,210.446 45.281,210.333 45.417 C 210.221 45.552,210.068 45.625,209.993 45.579 C 209.918 45.532,209.809 45.571,209.752 45.664 C 209.616 45.883,209.000 45.885,209.000 45.667 C 209.000 45.575,208.944 45.509,208.875 45.520 C 208.580 45.566,208.342 45.484,208.116 45.259 C 207.870 45.013,206.452 44.171,205.622 43.779 C 205.369 43.659,205.203 43.519,205.255 43.467 C 205.307 43.416,205.158 43.325,204.924 43.267 C 204.691 43.208,204.500 43.087,204.500 42.997 C 204.500 42.907,204.348 42.833,204.161 42.833 C 203.975 42.833,203.780 42.721,203.727 42.583 C 203.674 42.446,203.532 42.333,203.411 42.333 C 203.290 42.333,203.091 42.239,202.970 42.123 C 202.849 42.007,202.563 41.820,202.333 41.706 C 201.233 41.160,200.070 40.440,199.950 40.232 C 199.877 40.104,199.703 40.000,199.563 40.000 C 199.424 40.000,199.205 39.906,199.077 39.792 C 198.516 39.288,198.363 39.193,198.268 39.288 C 198.212 39.343,198.167 39.301,198.167 39.194 C 198.167 39.087,198.026 39.000,197.854 39.000 C 197.682 39.000,197.450 38.890,197.339 38.756 C 197.228 38.623,196.975 38.464,196.777 38.404 C 196.579 38.345,196.267 38.135,196.083 37.937 C 195.900 37.740,195.319 37.365,194.792 37.103 C 194.265 36.841,193.833 36.556,193.833 36.470 C 193.833 36.384,193.770 36.353,193.692 36.401 C 193.614 36.449,193.402 36.350,193.221 36.181 C 193.039 36.012,192.728 35.822,192.529 35.759 C 192.330 35.696,192.167 35.578,192.167 35.496 C 192.167 35.415,191.885 35.298,191.542 35.236 C 191.198 35.174,190.837 35.061,190.740 34.984 C 190.538 34.825,189.627 34.859,189.497 35.031 C 189.449 35.094,189.200 35.173,188.943 35.208 C 188.686 35.242,188.425 35.341,188.363 35.427 C 188.301 35.513,188.103 35.665,187.923 35.764 C 186.910 36.324,186.826 36.856,186.821 42.741 C 186.817 48.451,186.852 48.734,187.625 49.219 C 187.743 49.293,187.805 49.411,187.761 49.482 C 187.718 49.552,188.035 49.773,188.466 49.972 L 189.250 50.334 201.333 50.287 C 207.979 50.261,213.567 50.192,213.750 50.134 C 213.933 50.076,214.383 49.950,214.750 49.856 C 215.557 49.647,217.310 49.013,217.100 49.005 C 216.918 48.999,218.461 48.167,218.655 48.167 C 218.826 48.167,219.564 47.542,220.937 46.237 C 221.522 45.680,222.031 45.253,222.066 45.288 C 222.101 45.324,222.229 45.129,222.350 44.855 C 222.472 44.581,222.630 44.394,222.702 44.439 C 222.774 44.483,222.833 44.442,222.833 44.346 C 222.833 44.134,224.006 42.270,224.185 42.198 C 224.256 42.169,224.273 42.037,224.223 41.906 C 224.172 41.774,224.214 41.667,224.316 41.667 C 224.417 41.667,224.500 41.485,224.500 41.262 C 224.500 41.039,224.602 40.755,224.726 40.631 C 224.851 40.506,225.006 39.976,225.072 39.452 C 225.137 38.928,225.248 38.500,225.318 38.500 C 225.772 38.500,225.776 23.868,225.322 22.978 C 224.760 21.877,223.943 21.167,223.237 21.167 C 222.809 21.167,222.681 21.109,222.772 20.958 C 222.845 20.837,222.766 20.854,222.583 21.000 C 222.394 21.151,222.320 21.166,222.396 21.039 C 222.497 20.870,220.541 20.830,212.538 20.836 C 207.046 20.840,202.410 20.790,202.235 20.725 C 201.829 20.574,201.333 20.019,201.333 19.715 C 201.333 19.586,201.262 19.524,201.175 19.578 C 201.077 19.639,201.013 17.654,201.005 14.338 C 200.997 11.278,201.056 9.000,201.142 9.000 C 201.224 9.000,201.335 8.786,201.387 8.524 C 201.452 8.196,201.641 7.982,201.991 7.837 C 202.271 7.721,202.500 7.560,202.500 7.480 C 202.500 7.399,202.762 7.333,203.083 7.333 C 203.404 7.333,203.667 7.408,203.667 7.500 C 203.667 7.592,203.723 7.658,203.792 7.647 C 203.860 7.636,203.973 7.645,204.042 7.668 C 204.110 7.690,204.223 7.724,204.292 7.743 C 204.471 7.793,205.186 8.144,205.624 8.397 C 205.830 8.516,205.948 8.663,205.888 8.723 C 205.791 8.820,206.055 8.897,206.355 8.860 C 206.413 8.852,206.593 8.994,206.756 9.173 C 206.919 9.353,207.149 9.500,207.268 9.500 C 207.386 9.500,207.543 9.594,207.617 9.709 C 207.690 9.823,207.975 10.029,208.250 10.167 C 208.525 10.304,208.787 10.454,208.833 10.500 C 208.879 10.546,209.179 10.729,209.500 10.907 C 209.821 11.086,210.182 11.329,210.304 11.449 C 210.425 11.569,210.631 11.667,210.762 11.667 C 210.893 11.667,211.000 11.734,211.000 11.815 C 211.000 11.897,211.191 12.012,211.423 12.070 C 211.656 12.129,211.801 12.251,211.744 12.342 C 211.688 12.434,211.704 12.493,211.779 12.475 C 211.993 12.423,212.901 12.885,213.050 13.121 C 213.123 13.238,213.292 13.333,213.425 13.333 C 213.558 13.333,213.667 13.402,213.667 13.487 C 213.667 13.571,213.892 13.690,214.167 13.750 C 214.442 13.810,214.667 13.926,214.667 14.006 C 214.667 14.087,215.023 14.358,215.458 14.610 C 215.894 14.862,216.287 15.108,216.333 15.159 C 216.491 15.331,217.084 15.672,217.542 15.852 C 217.794 15.951,218.000 16.100,218.000 16.183 C 218.000 16.266,218.150 16.333,218.333 16.333 C 218.528 16.333,218.667 16.444,218.667 16.601 C 218.667 16.763,218.760 16.833,218.901 16.779 C 219.030 16.730,219.265 16.832,219.423 17.007 C 219.582 17.182,219.776 17.285,219.856 17.236 C 219.935 17.187,220.000 17.226,220.000 17.323 C 220.000 17.421,220.107 17.500,220.238 17.500 C 220.369 17.500,220.606 17.630,220.766 17.789 C 221.122 18.146,223.446 18.208,223.840 17.871 C 223.974 17.757,224.285 17.512,224.532 17.327 C 225.639 16.498,225.690 16.169,225.634 10.119 C 225.599 6.332,225.526 4.618,225.397 4.535 C 225.295 4.470,225.163 4.260,225.103 4.068 C 225.043 3.877,224.789 3.614,224.539 3.485 C 224.288 3.356,223.984 3.156,223.863 3.042 C 223.742 2.927,223.476 2.833,223.271 2.833 C 223.067 2.833,222.810 2.743,222.700 2.633 C 222.544 2.478,222.456 2.478,222.300 2.633 C 222.148 2.785,219.680 2.824,212.008 2.794 L 201.917 2.754 212.083 2.667 L 222.250 2.579 211.792 2.540 C 203.516 2.508,201.333 2.543,201.331 2.708 C 201.329 2.847,201.274 2.833,201.167 2.667 C 201.078 2.529,201.004 2.499,201.003 2.600 M56.792 2.792 C 54.156 2.817,49.844 2.817,47.208 2.792 C 44.573 2.766,46.729 2.745,52.000 2.745 C 57.271 2.745,59.427 2.766,56.792 2.792 M118.635 2.791 C 117.380 2.819,115.280 2.820,113.968 2.791 C 112.657 2.763,113.683 2.740,116.250 2.740 C 118.817 2.740,119.890 2.763,118.635 2.791 M58.139 7.671 C 58.170 7.762,58.252 7.800,58.321 7.757 C 58.497 7.649,59.212 9.125,59.084 9.332 C 59.027 9.424,59.060 9.500,59.157 9.500 C 59.279 9.500,59.333 12.696,59.333 19.917 C 59.333 27.137,59.279 30.333,59.157 30.333 C 59.060 30.333,59.018 30.395,59.065 30.470 C 59.181 30.659,58.375 31.500,58.077 31.500 C 57.943 31.500,57.833 31.556,57.833 31.625 C 57.833 31.694,54.946 31.750,51.417 31.750 C 47.887 31.750,45.000 31.694,45.000 31.625 C 45.000 31.556,44.901 31.500,44.779 31.500 C 44.540 31.500,44.046 30.980,43.699 30.363 C 43.436 29.894,43.783 28.817,44.535 27.767 C 44.791 27.409,45.000 27.022,45.000 26.906 C 45.000 26.789,45.056 26.669,45.125 26.639 C 45.194 26.608,45.438 26.212,45.667 25.758 C 45.896 25.304,46.278 24.629,46.517 24.258 C 46.755 23.887,47.125 23.227,47.338 22.792 C 47.551 22.356,47.787 22.000,47.863 22.000 C 47.938 22.000,48.000 21.885,48.000 21.745 C 48.000 21.604,48.112 21.446,48.250 21.394 C 48.387 21.341,48.500 21.226,48.500 21.139 C 48.500 21.052,48.406 21.028,48.292 21.086 C 48.177 21.144,48.197 21.092,48.335 20.971 C 48.474 20.849,48.683 20.563,48.800 20.333 C 49.030 19.883,49.193 19.611,49.848 18.583 C 50.082 18.217,50.441 17.565,50.646 17.136 C 50.852 16.706,51.071 16.331,51.135 16.302 C 51.198 16.274,51.504 15.762,51.814 15.167 C 52.125 14.571,52.469 14.008,52.580 13.917 C 52.690 13.825,52.873 13.470,52.986 13.127 C 53.099 12.785,53.256 12.464,53.336 12.415 C 53.415 12.366,53.653 11.971,53.865 11.538 C 54.077 11.105,54.297 10.713,54.354 10.667 C 54.411 10.621,54.615 10.289,54.807 9.930 C 54.998 9.571,55.238 9.226,55.339 9.163 C 55.440 9.101,55.544 8.945,55.570 8.817 C 55.642 8.461,55.977 7.729,55.989 7.901 C 55.995 7.984,56.131 7.937,56.292 7.798 C 56.836 7.323,57.994 7.244,58.139 7.671 M318.417 10.680 C 317.655 11.095,316.977 11.600,316.994 11.740 C 317.025 11.992,316.781 12.667,316.659 12.667 C 316.583 12.667,316.514 14.428,316.506 16.581 C 316.498 18.734,316.441 20.626,316.380 20.786 C 316.212 21.224,315.492 21.833,315.142 21.833 C 314.972 21.833,314.833 21.908,314.833 22.000 C 314.833 22.094,314.345 22.168,313.708 22.171 C 313.090 22.173,312.283 22.255,311.917 22.353 C 311.550 22.451,311.100 22.552,310.917 22.577 C 310.474 22.639,310.018 22.798,309.445 23.092 C 309.185 23.225,308.887 23.333,308.781 23.333 C 308.545 23.333,306.630 24.494,306.461 24.739 C 306.386 24.848,306.335 24.852,306.331 24.750 C 306.327 24.658,306.247 24.715,306.153 24.875 C 306.060 25.035,305.909 25.167,305.817 25.167 C 305.725 25.167,305.148 25.691,304.534 26.331 C 303.113 27.812,303.029 27.913,302.829 28.371 C 302.738 28.579,302.480 29.050,302.255 29.417 C 302.031 29.783,301.845 30.217,301.841 30.380 C 301.837 30.544,301.737 30.714,301.618 30.760 C 301.500 30.805,301.393 30.983,301.380 31.155 C 301.367 31.328,301.205 31.958,301.021 32.556 C 300.836 33.154,300.668 34.065,300.647 34.580 C 300.626 35.095,300.558 35.547,300.497 35.585 C 300.344 35.680,300.393 36.362,300.572 36.651 C 300.672 36.811,300.657 36.847,300.526 36.766 C 300.420 36.701,300.333 36.726,300.333 36.823 C 300.333 36.921,300.397 37.000,300.475 37.000 C 300.553 37.000,300.662 37.687,300.716 38.526 C 300.771 39.366,300.891 40.099,300.983 40.156 C 301.075 40.213,301.201 40.575,301.263 40.960 C 301.331 41.384,301.444 41.618,301.549 41.553 C 301.657 41.487,301.683 41.551,301.617 41.723 C 301.558 41.875,301.583 42.000,301.672 42.000 C 301.761 42.000,301.835 42.169,301.837 42.375 C 301.839 42.581,301.987 42.938,302.167 43.167 C 302.346 43.396,302.494 43.639,302.496 43.706 C 302.498 43.774,302.631 43.983,302.792 44.170 C 302.952 44.358,303.069 44.542,303.051 44.580 C 303.033 44.618,303.386 45.018,303.835 45.470 C 304.285 45.922,304.606 46.339,304.549 46.396 C 304.491 46.453,304.535 46.500,304.645 46.500 C 304.756 46.500,305.150 46.792,305.522 47.149 C 305.894 47.507,306.660 48.040,307.224 48.335 C 307.788 48.631,308.287 48.920,308.333 48.979 C 308.468 49.153,310.230 49.833,310.545 49.833 C 310.704 49.833,310.833 49.898,310.833 49.976 C 310.833 50.340,335.197 50.448,335.498 50.086 C 335.613 49.947,335.784 49.833,335.877 49.833 C 336.067 49.833,336.320 49.542,336.923 48.628 L 337.333 48.007 337.333 35.513 C 337.333 28.466,337.269 22.980,337.186 22.929 C 337.105 22.879,336.987 22.424,336.924 21.919 C 336.861 21.413,336.742 21.000,336.660 21.000 C 336.578 21.000,336.548 20.901,336.595 20.781 C 336.641 20.660,336.564 20.341,336.424 20.072 C 336.283 19.803,336.168 19.452,336.168 19.292 C 336.167 19.131,336.100 19.000,336.018 19.000 C 335.936 19.000,335.820 18.803,335.760 18.563 C 335.700 18.323,335.560 18.026,335.450 17.902 C 335.009 17.408,334.858 17.198,334.610 16.734 C 334.468 16.468,334.089 15.969,333.768 15.625 C 333.447 15.281,333.223 15.000,333.271 15.000 C 333.319 15.000,333.110 14.794,332.806 14.542 C 332.502 14.290,332.102 13.932,331.918 13.746 C 331.491 13.317,330.230 12.500,329.994 12.500 C 329.895 12.500,329.854 12.434,329.904 12.354 C 329.954 12.273,329.766 12.162,329.486 12.106 C 329.207 12.050,329.022 11.932,329.077 11.844 C 329.131 11.756,328.893 11.634,328.546 11.573 C 328.200 11.512,327.760 11.365,327.569 11.246 C 327.379 11.126,326.872 10.976,326.444 10.912 C 326.017 10.848,325.667 10.730,325.667 10.650 C 325.667 10.569,325.498 10.499,325.292 10.493 C 325.085 10.487,323.604 10.445,322.000 10.400 C 319.234 10.321,319.049 10.336,318.417 10.680 M237.167 11.403 C 237.167 11.487,237.123 11.512,237.069 11.458 C 237.016 11.404,236.744 11.440,236.465 11.537 C 236.012 11.695,235.673 11.990,234.833 12.955 C 234.448 13.397,234.476 48.971,234.861 48.733 C 234.938 48.686,235.000 48.737,235.000 48.847 C 235.000 49.103,235.938 50.007,236.068 49.876 C 236.122 49.822,236.167 49.870,236.167 49.982 C 236.167 50.094,236.236 50.143,236.322 50.090 C 236.407 50.038,236.524 50.071,236.582 50.164 C 236.986 50.818,252.833 50.289,252.833 49.621 C 252.833 49.544,252.890 49.514,252.958 49.556 C 253.086 49.633,253.600 49.163,253.563 49.004 C 253.525 48.843,253.724 48.418,253.890 48.307 C 254.163 48.124,254.113 45.760,253.829 45.448 C 253.322 44.891,253.204 44.714,253.081 44.321 C 253.011 44.098,252.815 43.739,252.646 43.522 C 252.477 43.305,252.379 43.061,252.430 42.979 C 252.480 42.898,252.408 42.788,252.271 42.735 C 252.133 42.682,251.972 42.420,251.914 42.153 C 251.855 41.885,251.738 41.667,251.653 41.667 C 251.569 41.667,251.500 41.558,251.500 41.425 C 251.500 41.292,251.369 41.110,251.210 41.021 C 251.050 40.931,250.971 40.807,251.033 40.745 C 251.095 40.682,251.012 40.487,250.848 40.311 C 250.684 40.135,250.460 39.691,250.350 39.324 C 250.240 38.957,250.088 38.696,250.011 38.743 C 249.897 38.814,249.650 38.262,249.686 38.019 C 249.691 37.983,249.632 37.908,249.556 37.852 C 249.479 37.796,249.242 37.394,249.030 36.958 C 248.817 36.523,248.561 36.167,248.461 36.167 C 248.360 36.167,248.325 36.119,248.383 36.061 C 248.441 36.004,248.378 35.799,248.244 35.608 C 248.110 35.416,248.000 35.134,248.000 34.981 C 248.000 34.828,247.883 34.657,247.739 34.602 C 247.596 34.547,247.521 34.435,247.572 34.352 C 247.623 34.269,247.560 34.161,247.431 34.112 C 247.303 34.063,247.147 33.792,247.085 33.510 C 247.024 33.228,246.904 33.040,246.820 33.092 C 246.736 33.144,246.661 33.126,246.654 33.052 C 246.612 32.606,246.503 32.271,246.372 32.183 C 246.290 32.128,246.020 31.652,245.773 31.125 C 245.526 30.598,245.251 30.167,245.162 30.167 C 245.073 30.167,245.008 30.110,245.018 30.042 C 245.054 29.790,244.790 29.167,244.647 29.167 C 244.566 29.167,244.500 29.063,244.500 28.937 C 244.500 28.811,244.387 28.614,244.250 28.500 C 244.112 28.386,244.000 28.193,244.000 28.070 C 244.000 27.948,243.813 27.572,243.583 27.234 C 243.354 26.896,243.167 26.476,243.167 26.300 C 243.167 26.124,243.100 26.022,243.018 26.072 C 242.936 26.123,242.822 25.977,242.765 25.749 C 242.707 25.520,242.587 25.333,242.497 25.333 C 242.407 25.333,242.333 24.924,242.333 24.424 C 242.333 23.506,243.328 22.333,244.107 22.333 C 244.232 22.333,244.333 22.258,244.333 22.167 C 244.333 22.075,244.405 22.000,244.493 22.000 C 244.636 22.000,245.665 21.376,246.083 21.036 C 246.175 20.961,246.381 20.850,246.542 20.788 C 246.702 20.727,246.833 20.595,246.833 20.495 C 246.833 20.395,246.896 20.352,246.972 20.399 C 247.049 20.447,247.386 20.298,247.722 20.070 C 248.058 19.842,248.333 19.696,248.333 19.746 C 248.333 19.851,249.637 19.025,249.970 18.709 C 250.091 18.594,250.298 18.500,250.429 18.500 C 250.560 18.500,250.667 18.426,250.667 18.337 C 250.667 18.247,250.854 18.126,251.083 18.068 C 251.313 18.011,251.500 17.897,251.500 17.815 C 251.500 17.734,251.579 17.667,251.675 17.667 C 251.771 17.667,252.239 17.420,252.716 17.117 C 254.835 15.775,255.584 15.715,256.424 16.821 C 256.741 17.238,256.752 17.691,256.833 32.583 L 256.917 47.917 257.387 48.718 C 257.646 49.158,258.038 49.600,258.257 49.700 C 258.477 49.800,258.622 49.938,258.580 50.005 C 258.409 50.282,259.579 50.329,266.742 50.331 L 274.234 50.333 275.098 49.810 C 275.791 49.389,276.004 49.151,276.176 48.602 C 276.674 47.014,276.677 46.561,276.201 45.333 C 276.113 45.104,276.026 44.842,276.008 44.750 C 275.991 44.658,275.869 44.523,275.738 44.450 C 275.607 44.377,275.500 44.214,275.500 44.089 C 275.500 43.964,275.444 43.836,275.375 43.806 C 275.306 43.775,275.077 43.395,274.865 42.962 C 274.654 42.529,274.409 42.130,274.321 42.076 C 274.233 42.021,274.200 41.915,274.246 41.839 C 274.293 41.764,274.219 41.659,274.082 41.606 C 273.945 41.553,273.833 41.358,273.833 41.172 C 273.833 40.986,273.774 40.833,273.702 40.833 C 273.629 40.833,273.389 40.421,273.167 39.917 C 272.945 39.412,272.722 39.000,272.672 39.000 C 272.622 39.000,272.474 38.756,272.343 38.458 C 272.211 38.160,271.893 37.583,271.635 37.176 C 271.378 36.768,271.167 36.295,271.167 36.124 C 271.167 35.953,271.097 35.857,271.012 35.909 C 270.927 35.962,270.805 35.838,270.740 35.635 C 270.675 35.432,270.520 35.163,270.395 35.038 C 270.269 34.912,270.167 34.692,270.167 34.548 C 270.167 34.404,270.035 34.179,269.875 34.048 C 269.698 33.903,269.682 33.856,269.833 33.930 C 269.971 33.997,269.877 33.830,269.625 33.558 C 269.373 33.287,269.167 32.948,269.167 32.805 C 269.167 32.662,269.017 32.354,268.833 32.121 C 268.650 31.888,268.500 31.616,268.500 31.515 C 268.500 31.415,268.431 31.333,268.347 31.333 C 268.262 31.333,268.144 31.108,268.083 30.833 C 268.023 30.558,267.892 30.333,267.792 30.333 C 267.693 30.333,267.658 30.287,267.715 30.229 C 267.772 30.172,267.635 29.884,267.409 29.589 C 267.184 29.293,267.000 28.980,267.000 28.892 C 267.000 28.804,266.811 28.475,266.580 28.162 C 266.349 27.849,266.198 27.493,266.245 27.371 C 266.291 27.249,266.263 27.190,266.182 27.240 C 266.048 27.323,265.829 26.980,265.852 26.725 C 265.857 26.668,265.799 26.575,265.723 26.519 C 265.258 26.179,264.798 24.929,264.878 24.223 C 264.953 23.556,265.587 22.532,265.796 22.741 C 265.836 22.781,266.022 22.670,266.210 22.496 C 266.397 22.321,266.614 22.218,266.692 22.266 C 266.770 22.314,266.833 22.269,266.833 22.167 C 266.833 22.064,266.908 22.027,267.000 22.083 C 267.092 22.140,267.167 22.112,267.167 22.022 C 267.167 21.932,267.573 21.659,268.069 21.417 C 268.565 21.174,269.102 20.831,269.261 20.654 C 269.421 20.478,269.673 20.333,269.822 20.333 C 269.971 20.333,270.216 20.202,270.368 20.042 C 270.934 19.442,271.502 19.093,271.251 19.498 C 271.194 19.591,271.257 19.622,271.395 19.569 C 271.530 19.517,271.684 19.363,271.736 19.227 C 271.788 19.090,271.907 19.026,271.999 19.083 C 272.091 19.140,272.167 19.105,272.167 19.006 C 272.167 18.907,272.373 18.735,272.625 18.623 C 272.877 18.512,273.182 18.326,273.304 18.210 C 273.425 18.095,273.631 18.000,273.762 18.000 C 273.893 18.000,274.000 17.925,274.000 17.833 C 274.000 17.742,274.106 17.667,274.236 17.667 C 274.366 17.667,274.497 17.603,274.528 17.525 C 274.624 17.279,277.205 16.000,277.604 16.000 C 277.825 16.000,278.271 16.279,278.660 16.660 L 279.333 17.320 279.333 32.567 C 279.333 41.044,279.398 47.853,279.478 47.903 C 279.558 47.953,279.670 48.201,279.726 48.455 C 279.855 49.033,280.245 49.487,281.020 49.963 C 281.925 50.519,293.030 50.543,294.059 49.991 C 294.749 49.622,295.486 48.877,295.495 48.542 C 295.498 48.427,295.570 48.333,295.656 48.333 C 295.742 48.333,295.812 48.202,295.812 48.042 C 295.811 47.881,295.812 42.762,295.815 36.667 C 295.817 30.571,295.787 25.246,295.749 24.833 C 295.631 23.547,295.367 22.158,295.202 21.950 C 295.115 21.840,294.993 21.469,294.931 21.125 C 294.869 20.781,294.753 20.500,294.672 20.500 C 294.592 20.500,294.477 20.275,294.417 20.000 C 294.356 19.725,294.253 19.500,294.187 19.500 C 294.121 19.500,293.972 19.237,293.856 18.917 C 293.740 18.596,293.575 18.333,293.489 18.333 C 293.403 18.333,293.333 18.221,293.333 18.083 C 293.333 17.946,293.254 17.833,293.157 17.833 C 293.060 17.833,293.027 17.758,293.083 17.667 C 293.140 17.575,293.105 17.500,293.005 17.500 C 292.905 17.500,292.779 17.385,292.725 17.245 C 292.581 16.869,290.418 14.667,290.193 14.667 C 290.087 14.667,290.000 14.609,290.000 14.539 C 290.000 14.237,287.029 12.516,286.490 12.505 C 286.347 12.502,286.085 12.390,285.907 12.255 C 285.729 12.121,285.430 12.008,285.242 12.005 C 285.054 12.002,284.823 11.923,284.728 11.828 C 284.633 11.733,284.112 11.620,283.570 11.575 C 283.027 11.530,282.410 11.455,282.198 11.408 C 281.486 11.249,237.167 11.244,237.167 11.403 M347.833 11.375 C 347.833 11.444,347.665 11.502,347.458 11.505 C 347.090 11.509,345.833 12.527,345.833 12.822 C 345.833 12.904,345.745 13.002,345.638 13.037 C 345.352 13.133,345.361 12.541,345.342 31.026 C 345.323 49.350,345.322 49.313,346.125 49.329 C 346.240 49.331,346.333 49.401,346.333 49.484 C 346.333 50.379,358.240 50.855,359.869 50.024 C 360.500 49.702,361.000 49.279,361.000 49.067 C 361.000 48.999,361.131 48.798,361.292 48.621 C 361.563 48.321,361.587 47.441,361.631 36.024 C 361.677 23.982,361.685 23.736,362.025 23.033 C 362.215 22.639,362.408 22.353,362.453 22.398 C 362.498 22.443,362.704 22.297,362.912 22.073 C 363.119 21.850,363.377 21.667,363.484 21.667 C 363.592 21.667,363.771 21.590,363.882 21.497 C 364.680 20.824,364.909 20.667,365.091 20.667 C 365.205 20.667,365.341 20.554,365.394 20.417 C 365.446 20.279,365.604 20.167,365.745 20.167 C 365.885 20.167,366.000 20.092,366.000 20.000 C 366.000 19.908,366.097 19.833,366.216 19.833 C 366.335 19.833,366.579 19.721,366.758 19.583 C 367.406 19.085,368.352 18.500,368.507 18.500 C 368.595 18.500,368.668 18.444,368.670 18.375 C 368.672 18.306,369.045 18.025,369.500 17.750 C 369.955 17.475,370.328 17.152,370.330 17.032 C 370.332 16.912,370.402 16.856,370.486 16.908 C 370.571 16.960,370.689 16.777,370.750 16.501 C 370.810 16.226,370.929 16.000,371.013 16.000 C 371.098 16.000,371.167 15.470,371.167 14.823 C 371.167 13.596,370.433 12.000,369.868 12.000 C 369.746 12.000,369.694 11.923,369.753 11.829 C 369.811 11.735,369.796 11.676,369.721 11.697 C 369.645 11.718,369.313 11.642,368.982 11.529 C 368.306 11.298,347.833 11.148,347.833 11.375 M86.431 16.644 C 86.382 16.724,86.078 16.831,85.757 16.883 C 85.182 16.977,84.000 17.926,84.000 18.295 C 84.000 18.392,83.906 18.503,83.792 18.542 C 83.423 18.664,83.407 47.663,83.775 48.469 C 84.083 49.145,84.868 49.937,85.469 50.178 C 86.090 50.428,97.551 50.378,97.824 50.125 C 98.007 49.956,98.023 49.963,97.912 50.167 C 97.652 50.644,98.557 49.812,99.538 48.671 C 99.826 48.336,99.852 18.719,99.564 18.536 C 99.462 18.470,99.329 18.260,99.270 18.068 C 99.210 17.877,98.975 17.620,98.747 17.499 C 98.520 17.377,98.333 17.218,98.333 17.146 C 98.333 17.025,98.121 16.972,96.756 16.755 C 95.952 16.626,86.850 16.637,86.641 16.766 C 86.522 16.840,86.494 16.812,86.567 16.692 C 86.633 16.587,86.649 16.500,86.603 16.500 C 86.557 16.500,86.480 16.565,86.431 16.644 M164.905 16.685 C 164.871 16.741,164.507 16.833,164.098 16.889 C 163.236 17.007,162.326 17.795,161.915 18.780 C 161.612 19.505,161.536 48.167,161.837 48.167 C 161.927 48.167,162.000 48.316,162.000 48.499 C 162.000 48.826,162.907 49.833,163.201 49.833 C 163.285 49.833,163.299 49.921,163.232 50.028 C 163.151 50.159,163.203 50.188,163.389 50.117 C 163.542 50.058,163.667 50.083,163.667 50.172 C 163.667 50.273,165.970 50.333,169.843 50.333 C 173.871 50.333,175.984 50.276,175.918 50.169 C 175.859 50.074,175.926 50.046,176.075 50.103 C 176.217 50.158,176.333 50.115,176.333 50.008 C 176.333 49.901,176.409 49.860,176.501 49.917 C 176.593 49.974,176.714 49.904,176.769 49.762 C 176.823 49.619,176.930 49.540,177.005 49.587 C 177.081 49.633,177.191 49.519,177.250 49.333 C 177.309 49.147,177.411 49.029,177.477 49.069 C 177.543 49.110,177.609 48.997,177.622 48.817 C 177.636 48.638,177.762 48.260,177.903 47.977 C 178.348 47.085,178.270 19.444,177.820 18.750 C 177.642 18.475,177.453 18.128,177.401 17.979 C 177.348 17.830,177.105 17.605,176.861 17.479 C 176.617 17.353,176.370 17.186,176.312 17.107 C 176.042 16.736,165.123 16.332,164.905 16.685 M10.208 22.083 C 9.877 22.459,9.913 30.770,10.247 31.104 C 10.429 31.286,10.829 31.342,11.764 31.317 C 13.451 31.273,13.712 31.025,13.636 29.534 C 13.586 28.532,13.602 28.481,14.000 28.394 C 14.823 28.213,15.000 28.142,15.000 27.989 C 15.000 27.903,15.104 27.833,15.230 27.833 C 15.455 27.833,16.245 26.413,16.389 25.750 C 16.429 25.567,16.473 25.754,16.488 26.167 C 16.502 26.579,16.651 27.175,16.819 27.490 C 17.120 28.055,17.120 28.068,16.771 28.378 C 16.576 28.551,16.529 28.638,16.667 28.572 C 16.870 28.474,16.877 28.493,16.708 28.676 C 16.585 28.808,16.501 29.346,16.503 29.992 C 16.504 30.652,16.561 30.995,16.646 30.861 C 16.754 30.691,16.808 30.719,16.876 30.977 C 16.987 31.402,20.750 31.430,21.499 31.011 C 22.747 30.313,22.909 29.917,22.948 27.458 L 22.980 25.500 21.273 25.500 C 19.271 25.500,19.167 25.436,19.167 24.205 C 19.167 23.053,19.434 23.080,20.900 24.375 C 21.081 24.535,21.320 24.667,21.430 24.667 C 21.541 24.667,21.674 24.779,21.727 24.917 C 21.857 25.255,22.768 25.244,22.899 24.903 C 23.157 24.230,23.004 22.411,22.665 22.120 C 21.368 21.010,16.833 22.271,16.833 23.742 C 16.833 23.965,16.762 24.191,16.674 24.246 C 16.586 24.300,16.557 24.454,16.608 24.589 C 16.660 24.723,16.619 24.833,16.518 24.833 C 16.416 24.833,16.333 24.608,16.333 24.333 C 16.333 24.058,16.258 23.833,16.167 23.833 C 16.075 23.833,16.000 23.684,16.000 23.501 C 16.000 23.319,15.850 23.076,15.667 22.961 C 15.483 22.847,15.333 22.667,15.333 22.562 C 15.333 21.945,10.710 21.512,10.208 22.083 M13.167 25.375 L 13.167 27.417 12.103 27.362 C 11.148 27.312,11.047 27.274,11.122 26.987 C 11.168 26.811,11.266 26.667,11.340 26.667 C 11.413 26.667,11.523 26.442,11.583 26.167 C 11.644 25.892,11.762 25.667,11.847 25.667 C 11.931 25.667,11.983 25.610,11.961 25.542 C 11.940 25.473,12.081 25.079,12.275 24.667 C 12.468 24.254,12.671 23.785,12.725 23.625 C 13.000 22.807,13.167 23.467,13.167 25.375 M329.725 26.208 C 330.509 26.900,330.687 28.667,329.973 28.667 C 329.896 28.667,329.833 28.805,329.833 28.974 C 329.833 29.144,329.683 29.455,329.500 29.667 C 329.317 29.878,329.167 30.152,329.167 30.276 C 329.167 30.399,329.099 30.500,329.016 30.500 C 328.934 30.500,328.779 30.706,328.673 30.958 C 328.338 31.756,328.092 32.167,327.951 32.167 C 327.875 32.167,327.860 32.242,327.917 32.333 C 327.973 32.425,327.948 32.500,327.859 32.500 C 327.771 32.500,327.618 32.706,327.519 32.958 C 327.279 33.566,326.965 34.052,326.705 34.219 C 326.588 34.293,326.531 34.416,326.578 34.491 C 326.625 34.567,326.555 34.718,326.423 34.828 C 326.291 34.937,326.016 35.377,325.812 35.805 C 325.608 36.233,325.347 36.640,325.233 36.709 C 325.119 36.779,324.977 37.060,324.916 37.334 C 324.856 37.609,324.738 37.833,324.653 37.833 C 324.569 37.833,324.500 37.942,324.500 38.075 C 324.500 38.208,324.406 38.377,324.292 38.450 C 324.177 38.523,323.951 38.846,323.789 39.167 C 323.406 39.928,322.709 41.183,322.495 41.500 C 322.153 42.005,321.599 42.919,321.586 43.000 C 321.578 43.046,321.369 43.401,321.119 43.788 C 320.870 44.176,320.667 44.541,320.667 44.598 C 320.667 44.825,319.901 45.494,319.639 45.497 C 319.486 45.499,319.331 45.591,319.293 45.703 C 319.207 45.963,317.839 45.543,317.714 45.217 C 317.669 45.098,317.528 45.000,317.402 45.000 C 317.007 45.000,316.987 44.466,317.036 35.472 L 317.083 26.695 317.500 26.351 C 317.729 26.163,317.992 25.935,318.083 25.846 C 318.184 25.747,320.389 25.680,323.681 25.675 L 329.111 25.667 329.725 26.208 M20.500 28.833 C 20.500 29.874,20.280 30.121,19.833 29.583 C 19.719 29.446,19.520 29.333,19.391 29.333 C 19.262 29.333,19.113 29.221,19.060 29.083 C 19.008 28.946,18.871 28.833,18.757 28.833 C 18.549 28.833,17.667 28.098,17.667 27.925 C 17.667 27.874,18.304 27.833,19.083 27.833 L 20.500 27.833 20.500 28.833 " stroke="none" fill="#049bdc" fill-rule="evenodd"></path><path id="path1" d="M-0.000 0.226 C -0.000 1.183,0.377 4.769,0.492 4.908 C 0.572 5.005,0.689 5.365,0.754 5.708 C 0.818 6.052,0.937 6.333,1.019 6.333 C 1.100 6.333,1.167 6.501,1.167 6.706 C 1.167 7.090,1.986 8.874,2.208 8.972 C 2.277 9.003,2.333 9.119,2.333 9.230 C 2.333 9.709,4.843 12.329,5.640 12.681 C 5.929 12.810,6.167 12.969,6.167 13.035 C 6.167 13.101,6.542 13.205,7.000 13.266 C 7.458 13.327,7.833 13.435,7.833 13.508 C 7.833 13.580,10.349 13.664,13.423 13.695 C 17.335 13.733,19.048 13.806,19.131 13.938 C 19.197 14.041,19.569 14.179,19.958 14.244 C 20.348 14.309,20.667 14.431,20.667 14.515 C 20.667 14.598,20.798 14.669,20.958 14.672 C 21.430 14.680,23.830 15.963,23.832 16.208 C 23.833 16.277,23.929 16.333,24.046 16.333 C 24.163 16.333,24.376 16.465,24.518 16.625 C 24.661 16.785,25.034 17.154,25.347 17.444 C 26.114 18.155,26.550 18.652,26.929 19.250 C 27.103 19.525,27.337 19.846,27.450 19.964 C 27.562 20.081,27.702 20.437,27.762 20.755 C 27.822 21.073,27.930 21.333,28.004 21.333 C 28.077 21.333,28.191 21.652,28.256 22.042 C 28.321 22.431,28.437 22.790,28.515 22.840 C 28.592 22.889,28.707 23.666,28.770 24.566 L 28.885 26.204 29.501 26.121 C 30.062 26.046,31.326 25.069,31.337 24.703 C 31.339 24.637,31.487 24.396,31.667 24.167 C 31.846 23.938,31.995 23.600,31.997 23.417 C 32.000 23.233,32.121 22.858,32.265 22.583 C 32.410 22.308,32.570 21.690,32.621 21.208 C 32.672 20.727,32.778 20.333,32.857 20.333 C 32.935 20.333,33.000 18.608,33.000 16.500 C 33.000 14.392,32.934 12.667,32.853 12.667 C 32.772 12.667,32.653 12.179,32.589 11.583 C 32.526 10.987,32.414 10.500,32.341 10.500 C 32.268 10.500,32.163 10.275,32.108 10.000 C 32.053 9.725,31.856 9.167,31.671 8.759 C 31.485 8.352,31.333 7.939,31.333 7.842 C 31.333 7.746,31.266 7.667,31.185 7.667 C 31.103 7.667,30.989 7.479,30.932 7.250 C 30.874 7.021,30.753 6.833,30.663 6.833 C 30.574 6.833,30.500 6.718,30.500 6.578 C 30.500 6.438,30.387 6.280,30.250 6.227 C 30.113 6.174,30.000 6.041,30.000 5.930 C 30.000 5.820,29.850 5.569,29.667 5.372 C 29.483 5.175,29.333 4.963,29.333 4.900 C 29.333 4.751,27.010 2.500,26.857 2.500 C 26.793 2.500,26.612 2.350,26.455 2.167 C 26.298 1.983,26.063 1.833,25.932 1.833 C 25.801 1.833,25.669 1.774,25.639 1.702 C 25.592 1.591,24.740 1.159,23.250 0.489 C 22.062 -0.044,0.000 -0.295,-0.000 0.226 M3.050 27.169 C 2.413 27.425,1.431 28.635,1.239 29.400 C 1.179 29.638,1.070 29.833,0.997 29.833 C 0.923 29.833,0.809 30.152,0.744 30.542 C 0.679 30.931,0.560 31.292,0.480 31.343 C -0.047 31.679,-0.053 41.237,0.474 41.890 C 0.559 41.997,0.682 42.402,0.746 42.792 C 0.810 43.181,0.925 43.500,1.001 43.500 C 1.078 43.500,1.193 43.741,1.258 44.035 C 1.376 44.575,1.971 45.846,2.177 46.000 C 2.238 46.046,2.335 46.233,2.392 46.417 C 2.450 46.600,2.685 46.953,2.915 47.201 C 3.145 47.449,3.333 47.709,3.333 47.779 C 3.333 47.848,3.477 48.058,3.652 48.244 C 4.661 49.318,5.502 50.133,5.981 50.500 C 6.281 50.729,6.681 51.048,6.872 51.208 C 7.062 51.369,7.312 51.500,7.428 51.500 C 7.544 51.500,7.664 51.558,7.694 51.628 C 7.818 51.914,10.053 52.860,10.953 53.007 C 11.487 53.094,16.620 53.165,22.458 53.166 L 33.000 53.167 33.000 51.510 C 33.000 50.599,32.935 49.813,32.855 49.764 C 32.776 49.714,32.659 49.222,32.597 48.670 C 32.535 48.118,32.417 47.667,32.335 47.667 C 32.254 47.667,32.136 47.325,32.073 46.908 C 32.011 46.491,31.856 46.047,31.730 45.920 C 31.603 45.794,31.500 45.578,31.500 45.440 C 31.500 45.303,31.397 45.088,31.272 44.962 C 31.147 44.837,30.987 44.554,30.917 44.333 C 30.847 44.113,30.706 43.838,30.603 43.722 C 30.247 43.320,30.064 43.080,29.637 42.449 C 29.245 41.871,28.881 41.546,27.828 40.833 C 27.625 40.696,27.365 40.493,27.250 40.383 C 27.135 40.273,26.825 40.132,26.562 40.069 C 26.299 40.006,25.978 39.871,25.850 39.769 C 25.692 39.644,23.872 39.568,20.266 39.535 C 17.324 39.509,14.767 39.422,14.583 39.342 C 14.400 39.262,13.781 39.104,13.208 38.992 C 12.635 38.880,12.167 38.726,12.167 38.651 C 12.167 38.576,11.904 38.466,11.583 38.406 C 11.262 38.345,11.000 38.230,11.000 38.148 C 11.000 38.067,10.899 38.000,10.776 38.000 C 10.652 38.000,10.378 37.850,10.167 37.667 C 9.955 37.483,9.681 37.333,9.558 37.333 C 9.434 37.333,9.333 37.275,9.333 37.203 C 9.333 37.131,9.127 36.949,8.875 36.800 C 7.673 36.085,6.106 34.240,5.436 32.750 C 5.189 32.200,4.911 31.613,4.817 31.446 C 4.724 31.278,4.604 30.770,4.550 30.316 C 4.496 29.862,4.388 29.451,4.310 29.402 C 4.231 29.353,4.167 28.793,4.167 28.157 C 4.167 26.903,4.024 26.776,3.050 27.169 M121.434 52.764 C 120.911 54.128,121.454 56.484,122.186 56.026 C 122.356 55.920,123.109 55.833,123.858 55.833 L 125.220 55.833 125.112 59.875 C 125.053 62.098,124.955 64.385,124.895 64.958 L 124.786 66.000 127.048 66.000 L 129.310 66.000 129.394 64.542 C 129.512 62.500,129.804 56.844,129.820 56.292 L 129.833 55.833 131.486 55.833 C 132.572 55.833,133.161 55.898,133.202 56.023 C 133.468 56.820,134.000 55.691,133.997 54.335 C 133.994 52.690,133.849 52.310,133.341 52.625 C 132.914 52.889,122.745 52.929,122.583 52.667 C 122.417 52.397,121.547 52.471,121.434 52.764 M156.000 55.334 C 156.000 56.892,155.937 58.167,155.859 58.167 C 155.782 58.167,155.666 59.760,155.602 61.708 C 155.537 63.655,155.413 65.320,155.326 65.408 C 154.833 65.901,155.170 66.000,157.333 66.000 L 159.500 66.000 159.500 64.667 C 159.500 63.933,159.564 63.333,159.642 63.333 C 159.720 63.333,159.828 62.658,159.881 61.832 C 159.948 60.797,160.059 60.250,160.239 60.070 C 160.383 59.927,160.500 59.740,160.500 59.655 C 160.500 59.570,160.594 59.500,160.708 59.499 C 160.823 59.498,161.136 59.384,161.404 59.244 C 161.672 59.104,161.934 59.054,161.987 59.132 C 162.040 59.210,162.215 59.323,162.375 59.382 C 162.535 59.441,162.667 59.604,162.667 59.745 C 162.667 59.885,162.742 60.000,162.833 60.000 C 163.039 60.000,163.057 62.038,162.853 62.258 C 162.773 62.345,162.668 63.223,162.621 64.208 L 162.536 66.000 164.661 66.000 L 166.785 66.000 166.891 64.875 C 166.950 64.256,166.998 63.061,166.999 62.218 C 166.999 61.376,167.075 60.640,167.167 60.583 C 167.258 60.527,167.333 59.964,167.333 59.333 C 167.333 58.702,167.258 58.140,167.167 58.083 C 167.075 58.027,167.000 57.858,167.000 57.709 C 167.000 57.306,166.300 56.349,165.917 56.227 C 165.733 56.169,165.530 56.038,165.464 55.936 C 165.288 55.660,161.134 55.681,161.042 55.958 C 161.004 56.073,160.864 56.167,160.731 56.167 C 160.598 56.167,160.446 56.279,160.394 56.417 C 160.341 56.554,160.231 56.667,160.149 56.667 C 159.943 56.667,159.960 54.711,160.167 54.583 C 160.377 54.453,160.381 53.000,160.171 52.668 C 160.046 52.470,159.972 52.462,159.807 52.626 C 159.586 52.848,156.982 52.926,156.773 52.718 C 156.107 52.052,156.000 52.414,156.000 55.334 M194.928 52.628 C 194.876 52.680,194.833 53.820,194.833 55.161 C 194.833 56.502,194.767 57.671,194.686 57.758 C 194.605 57.845,194.487 59.738,194.422 61.963 L 194.306 66.010 196.445 65.963 L 198.583 65.917 198.722 60.585 C 198.802 57.493,198.928 55.211,199.021 55.154 C 199.308 54.977,199.126 52.570,198.833 52.661 C 198.376 52.802,195.980 52.861,195.696 52.738 C 195.280 52.557,195.034 52.522,194.928 52.628 M324.934 52.892 C 324.881 53.089,324.837 54.612,324.836 56.278 C 324.834 57.943,324.770 59.331,324.692 59.361 C 324.614 59.392,324.502 60.898,324.443 62.708 L 324.335 66.000 326.482 66.000 L 328.629 66.000 328.734 61.542 C 328.792 59.090,328.913 56.853,329.003 56.572 C 329.418 55.275,329.130 52.137,328.640 52.626 C 328.419 52.848,325.815 52.926,325.606 52.717 C 325.355 52.466,325.025 52.552,324.934 52.892 M351.833 53.833 L 351.833 55.167 353.830 55.167 C 356.102 55.167,355.902 55.320,356.061 53.458 L 356.143 52.500 353.988 52.500 L 351.833 52.500 351.833 53.833 M293.000 53.613 C 292.771 53.650,292.433 53.747,292.250 53.828 C 292.067 53.910,291.635 54.022,291.292 54.079 L 290.667 54.182 290.667 55.174 L 290.667 56.167 289.827 56.167 L 288.987 56.167 289.035 57.708 L 289.083 59.250 289.792 59.301 C 290.491 59.352,290.799 59.796,290.333 60.083 C 290.130 60.209,290.104 65.000,290.307 65.000 C 290.384 65.000,290.529 65.181,290.630 65.402 C 290.731 65.623,290.986 65.859,291.198 65.925 C 291.410 65.991,291.629 66.116,291.685 66.203 C 291.841 66.446,295.251 66.398,295.822 66.145 C 296.344 65.914,296.396 65.762,296.598 63.875 L 296.710 62.833 296.272 62.833 C 296.031 62.833,295.833 62.908,295.833 63.000 C 295.833 63.240,295.135 63.195,294.789 62.933 C 294.473 62.693,294.413 62.232,294.466 60.458 L 294.500 59.333 295.583 59.333 L 296.667 59.333 296.667 57.750 L 296.667 56.167 295.583 56.167 L 294.500 56.167 294.500 55.677 C 294.500 55.407,294.575 55.140,294.667 55.083 C 294.758 55.027,294.833 54.647,294.833 54.240 L 294.833 53.500 294.125 53.523 C 293.735 53.535,293.229 53.576,293.000 53.613 M346.542 53.621 C 346.244 53.658,346.000 53.758,346.000 53.844 C 346.000 53.930,345.756 54.001,345.458 54.003 C 344.633 54.006,344.455 54.207,344.370 55.226 L 344.293 56.150 343.522 56.200 L 342.750 56.250 342.750 57.750 L 342.750 59.250 343.420 59.299 L 344.091 59.349 343.974 60.633 C 343.814 62.387,343.806 64.833,343.959 64.833 C 344.029 64.833,344.183 65.055,344.303 65.325 C 344.423 65.596,344.685 65.869,344.885 65.931 C 345.086 65.994,345.297 66.117,345.353 66.206 C 345.410 66.294,346.286 66.367,347.300 66.367 C 350.061 66.367,350.323 66.093,350.332 63.208 C 350.333 62.817,349.790 62.666,349.583 63.000 C 349.424 63.258,348.873 63.197,348.502 62.880 C 348.208 62.628,348.167 62.389,348.167 60.963 L 348.167 59.333 349.250 59.333 L 350.333 59.333 350.333 58.177 C 350.333 57.540,350.408 56.973,350.500 56.917 C 351.105 56.543,350.646 56.167,349.583 56.167 L 348.500 56.167 348.500 54.833 L 348.500 53.500 347.792 53.527 C 347.402 53.541,346.840 53.584,346.542 53.621 M137.708 55.777 C 137.410 55.820,137.167 55.919,137.167 55.997 C 137.167 56.076,136.942 56.190,136.667 56.250 C 136.392 56.310,136.167 56.421,136.167 56.495 C 136.167 56.570,135.998 56.675,135.792 56.729 C 135.402 56.830,134.807 57.623,134.584 58.337 C 134.513 58.564,134.384 58.796,134.297 58.852 C 134.210 58.908,134.098 59.414,134.046 59.977 C 133.995 60.539,133.889 61.000,133.810 61.000 C 133.731 61.000,133.667 61.150,133.667 61.333 C 133.667 61.517,133.731 61.667,133.810 61.667 C 133.889 61.667,133.995 62.127,134.046 62.690 C 134.098 63.253,134.202 63.759,134.278 63.815 C 134.355 63.871,134.529 64.133,134.666 64.398 C 134.980 65.007,136.266 66.000,136.741 66.000 C 136.938 66.000,137.182 66.082,137.283 66.183 C 137.533 66.433,142.551 66.430,142.634 66.180 C 142.667 66.081,142.820 66.000,142.974 66.000 C 143.414 66.000,143.623 65.493,143.753 64.113 L 143.872 62.833 143.283 62.833 C 142.960 62.833,142.667 62.914,142.634 63.014 C 142.599 63.118,141.873 63.233,140.902 63.286 L 139.230 63.378 138.615 62.839 C 137.377 61.752,137.567 61.667,141.250 61.667 C 144.028 61.667,144.500 61.630,144.500 61.417 C 144.500 61.279,144.575 61.167,144.667 61.167 C 144.873 61.167,144.890 59.222,144.686 59.095 C 144.604 59.045,144.488 58.740,144.428 58.419 C 144.368 58.097,144.247 57.833,144.159 57.833 C 144.072 57.833,144.000 57.738,144.000 57.620 C 144.000 57.297,143.108 56.390,142.653 56.250 C 142.431 56.182,142.151 56.047,142.031 55.950 C 141.803 55.768,138.660 55.642,137.708 55.777 M148.917 55.817 C 148.032 56.066,147.500 56.321,147.500 56.496 C 147.500 56.590,147.401 56.667,147.279 56.667 C 147.011 56.667,146.333 57.361,146.333 57.636 C 146.333 57.744,146.260 57.833,146.170 57.833 C 146.080 57.833,145.956 58.040,145.894 58.292 C 145.832 58.544,145.700 58.804,145.599 58.869 C 145.326 59.047,145.350 63.533,145.625 63.625 C 145.740 63.663,145.833 63.789,145.833 63.905 C 145.833 64.021,145.990 64.296,146.181 64.516 C 146.373 64.736,146.579 64.994,146.640 65.089 C 146.880 65.466,147.732 66.000,148.092 66.000 C 148.301 66.000,148.500 66.083,148.533 66.183 C 148.633 66.483,152.485 66.408,153.090 66.095 C 153.604 65.829,153.618 65.783,153.940 63.362 L 154.036 62.641 153.226 62.760 C 152.781 62.825,152.392 62.944,152.361 63.023 C 152.283 63.225,150.833 63.203,150.833 63.000 C 150.833 62.908,150.735 62.833,150.615 62.833 C 150.495 62.833,150.232 62.680,150.031 62.494 C 149.279 61.793,149.718 59.333,150.595 59.333 C 150.726 59.333,150.833 59.258,150.833 59.167 C 150.833 58.965,152.948 58.940,153.028 59.140 C 153.058 59.217,153.327 59.328,153.625 59.386 L 154.167 59.492 154.167 57.850 C 154.167 56.625,154.106 56.157,153.927 56.009 C 153.635 55.766,149.641 55.614,148.917 55.817 M175.083 55.770 C 174.523 55.914,173.590 56.372,173.461 56.566 C 173.394 56.667,173.337 56.544,173.336 56.292 L 173.333 55.833 171.167 55.833 L 169.000 55.833 169.000 58.217 C 169.000 59.528,168.934 60.671,168.854 60.758 C 168.774 60.845,168.660 62.060,168.601 63.458 L 168.492 66.000 170.637 66.000 L 172.781 66.000 172.888 63.543 C 172.949 62.118,173.065 61.062,173.164 61.029 C 173.257 60.998,173.333 60.808,173.333 60.607 C 173.333 59.591,175.192 58.922,175.731 59.744 C 176.044 60.223,176.134 64.731,175.833 64.917 C 175.742 64.973,175.667 65.240,175.667 65.510 L 175.667 66.000 177.833 66.000 L 180.000 66.000 180.000 64.417 C 180.000 63.472,180.067 62.833,180.167 62.833 C 180.271 62.833,180.333 61.861,180.333 60.250 C 180.333 58.788,180.267 57.667,180.180 57.667 C 180.096 57.667,179.977 57.442,179.917 57.167 C 179.856 56.892,179.708 56.667,179.588 56.667 C 179.468 56.667,179.326 56.554,179.273 56.417 C 179.220 56.279,179.069 56.167,178.936 56.167 C 178.803 56.167,178.666 56.082,178.632 55.979 C 178.566 55.781,175.697 55.613,175.083 55.770 M185.708 55.776 C 185.410 55.819,185.167 55.916,185.167 55.992 C 185.167 56.068,184.904 56.179,184.583 56.239 C 184.262 56.299,184.000 56.420,184.000 56.508 C 184.000 56.595,183.898 56.667,183.774 56.667 C 183.320 56.667,182.169 58.009,181.916 58.833 C 181.846 59.063,181.719 59.295,181.635 59.349 C 181.413 59.492,181.430 62.727,181.654 62.801 C 181.752 62.834,181.833 63.010,181.833 63.192 C 181.833 63.866,183.195 65.500,183.757 65.500 C 183.891 65.500,184.000 65.569,184.000 65.653 C 184.000 65.738,184.244 65.860,184.542 65.924 C 184.840 65.989,185.128 66.111,185.182 66.196 C 185.310 66.397,189.186 66.402,189.317 66.202 C 189.372 66.117,189.698 65.996,190.042 65.933 C 190.385 65.870,190.667 65.747,190.667 65.659 C 190.667 65.572,190.764 65.500,190.882 65.500 C 191.128 65.500,192.333 64.281,192.333 64.033 C 192.333 63.943,192.446 63.826,192.583 63.773 C 192.721 63.720,192.833 63.494,192.833 63.269 C 192.833 63.045,192.927 62.830,193.042 62.792 C 193.316 62.700,193.334 59.322,193.062 58.984 C 192.959 58.855,192.820 58.574,192.754 58.359 C 192.615 57.905,191.035 56.335,190.715 56.332 C 190.643 56.332,190.358 56.212,190.083 56.066 C 189.574 55.795,186.833 55.614,185.708 55.776 M204.333 55.778 C 204.104 55.826,203.842 55.924,203.750 55.997 C 203.658 56.069,203.340 56.180,203.042 56.244 C 202.744 56.308,202.500 56.429,202.500 56.513 C 202.500 56.598,202.411 56.667,202.303 56.667 C 202.039 56.667,200.667 58.154,200.667 58.440 C 200.667 58.565,200.594 58.667,200.506 58.667 C 200.417 58.667,200.295 59.042,200.234 59.500 C 200.173 59.958,200.058 60.333,199.979 60.333 C 199.789 60.333,199.789 61.786,199.978 61.903 C 200.057 61.952,200.163 62.348,200.212 62.782 C 200.260 63.217,200.383 63.600,200.484 63.633 C 200.584 63.667,200.667 63.766,200.667 63.854 C 200.667 64.119,201.382 65.000,201.597 65.000 C 201.707 65.000,201.841 65.112,201.894 65.250 C 201.946 65.387,202.104 65.500,202.245 65.500 C 202.385 65.500,202.500 65.572,202.500 65.659 C 202.500 65.747,202.781 65.870,203.125 65.933 C 203.469 65.996,203.796 66.119,203.852 66.206 C 203.985 66.410,207.626 66.405,207.886 66.200 C 207.994 66.114,208.365 65.993,208.708 65.931 C 209.052 65.869,209.333 65.744,209.333 65.654 C 209.333 65.563,209.465 65.440,209.625 65.379 C 210.052 65.218,210.951 64.253,211.091 63.804 C 211.157 63.591,211.285 63.370,211.374 63.312 C 211.463 63.255,211.571 62.842,211.614 62.396 C 211.656 61.949,211.774 61.413,211.875 61.205 C 212.013 60.924,212.010 60.776,211.863 60.630 C 211.755 60.522,211.667 60.128,211.667 59.756 C 211.667 58.735,210.366 56.667,209.723 56.667 C 209.600 56.667,209.500 56.598,209.500 56.513 C 209.500 56.429,209.256 56.307,208.958 56.242 C 208.660 56.178,208.370 56.052,208.313 55.962 C 208.200 55.785,205.005 55.636,204.333 55.778 M217.208 55.777 C 216.819 55.818,216.500 55.915,216.500 55.991 C 216.500 56.067,216.237 56.179,215.917 56.239 C 215.596 56.299,215.333 56.420,215.333 56.508 C 215.333 56.595,215.253 56.667,215.155 56.667 C 214.809 56.667,213.332 58.257,213.143 58.833 C 213.038 59.154,212.870 59.469,212.771 59.534 C 212.524 59.693,212.525 63.475,212.772 63.633 C 212.873 63.697,213.009 63.922,213.074 64.132 C 213.278 64.786,214.508 65.831,215.204 65.942 C 215.550 65.997,215.833 66.108,215.833 66.188 C 215.833 66.432,217.267 66.350,218.243 66.049 C 218.751 65.893,219.167 65.705,219.167 65.632 C 219.167 65.560,219.289 65.500,219.438 65.500 C 220.303 65.500,219.189 67.278,218.176 67.517 C 217.656 67.639,215.615 67.496,215.500 67.329 C 215.389 67.168,213.870 66.852,213.756 66.966 C 213.434 67.288,213.681 70.132,214.042 70.247 C 214.776 70.482,220.832 70.553,221.557 70.336 C 222.317 70.108,223.500 68.978,223.500 68.479 C 223.500 68.307,223.565 68.167,223.644 68.167 C 223.723 68.167,223.841 66.160,223.907 63.708 C 223.973 61.256,224.096 59.179,224.180 59.092 C 224.265 59.005,224.333 58.311,224.333 57.550 L 224.333 56.167 223.783 56.167 C 223.481 56.167,223.156 56.089,223.061 55.995 C 222.879 55.812,218.424 55.646,217.208 55.777 M244.583 55.778 C 242.143 56.309,241.367 59.037,243.142 60.840 C 243.589 61.295,244.040 61.667,244.144 61.667 C 244.248 61.667,244.333 61.732,244.333 61.812 C 244.333 61.892,244.595 62.135,244.916 62.354 C 245.581 62.806,245.655 63.095,245.149 63.256 C 244.731 63.388,242.953 63.191,242.833 62.998 C 242.787 62.924,242.457 62.809,242.099 62.742 L 241.448 62.620 241.557 63.417 C 241.618 63.855,241.667 64.615,241.667 65.107 C 241.667 65.974,241.680 66.000,242.133 66.000 C 242.390 66.000,242.678 66.078,242.773 66.173 C 242.990 66.390,247.113 66.416,247.385 66.202 C 247.494 66.116,247.775 66.000,248.009 65.945 C 248.639 65.795,249.643 64.711,249.768 64.048 C 249.902 63.333,249.746 62.110,249.511 62.031 C 249.413 61.999,249.333 61.871,249.333 61.747 C 249.333 61.445,247.608 59.834,247.285 59.834 C 247.007 59.833,246.469 59.185,246.588 58.993 C 246.699 58.814,248.499 58.835,249.750 59.031 C 250.148 59.093,250.297 58.482,250.018 57.933 C 249.920 57.741,249.820 57.208,249.795 56.750 L 249.750 55.917 248.833 55.808 C 247.803 55.686,245.093 55.667,244.583 55.778 M257.042 55.784 C 256.835 55.824,256.667 55.918,256.667 55.992 C 256.667 56.067,256.535 56.174,256.375 56.231 C 256.215 56.287,255.990 56.377,255.875 56.431 C 255.744 56.492,255.667 56.399,255.667 56.181 C 255.667 55.824,251.813 55.613,251.614 55.958 C 251.575 56.027,251.489 58.315,251.424 61.042 L 251.305 66.000 253.384 66.000 L 255.462 66.000 255.573 63.458 C 255.741 59.612,256.213 58.528,257.308 59.478 C 257.700 59.818,257.859 62.528,257.500 62.750 C 257.408 62.807,257.333 63.557,257.333 64.427 L 257.333 66.000 259.392 66.000 L 261.450 66.000 261.558 64.474 C 261.618 63.635,261.667 62.398,261.667 61.724 C 261.667 61.019,261.737 60.500,261.833 60.500 C 261.925 60.500,262.000 60.353,262.000 60.173 C 262.000 59.641,262.827 58.970,263.121 59.263 C 263.251 59.394,263.431 59.500,263.522 59.500 C 263.684 59.500,263.633 61.882,263.409 64.708 L 263.307 66.000 265.371 66.000 L 267.435 66.000 267.626 64.792 C 267.814 63.608,267.907 61.675,267.913 58.820 C 267.917 57.337,267.406 56.167,266.755 56.167 C 266.630 56.167,266.497 56.073,266.459 55.959 C 266.234 55.286,262.137 55.861,261.559 56.647 C 261.392 56.874,261.301 56.841,260.839 56.390 C 260.169 55.735,258.599 55.484,257.042 55.784 M272.833 55.780 C 272.421 55.821,272.012 55.925,271.925 56.011 C 271.838 56.096,271.528 56.167,271.237 56.167 C 270.946 56.167,270.631 56.260,270.537 56.375 C 270.341 56.614,270.070 59.167,270.240 59.167 C 270.545 59.167,271.942 58.766,272.119 58.627 C 272.437 58.378,274.931 58.253,275.071 58.479 C 275.347 58.926,274.990 59.314,274.200 59.429 C 273.769 59.491,273.342 59.598,273.250 59.667 C 273.158 59.735,272.708 59.845,272.250 59.910 C 270.727 60.127,269.320 61.083,269.072 62.068 C 269.013 62.306,268.897 62.500,268.815 62.500 C 268.610 62.500,268.627 63.956,268.833 64.083 C 268.925 64.140,269.000 64.289,269.000 64.415 C 269.000 64.842,269.748 65.807,270.165 65.917 C 270.393 65.977,270.618 66.087,270.665 66.161 C 270.754 66.302,272.203 66.402,273.538 66.359 C 274.256 66.336,274.336 66.292,274.424 65.875 C 274.477 65.623,274.585 65.295,274.665 65.146 C 274.745 64.996,274.862 64.599,274.925 64.262 L 275.040 63.650 274.216 63.759 C 272.993 63.921,272.304 63.014,273.435 62.730 C 273.654 62.676,273.833 62.576,273.833 62.510 C 273.833 62.444,274.156 62.316,274.551 62.225 L 275.269 62.061 275.220 62.905 C 275.193 63.370,275.137 64.256,275.095 64.875 L 275.019 66.000 277.167 66.000 L 279.315 66.000 279.405 63.792 C 279.455 62.577,279.539 60.725,279.592 59.676 C 279.662 58.288,279.630 57.653,279.474 57.343 C 279.234 56.864,278.748 56.334,278.549 56.332 C 278.476 56.332,278.192 56.208,277.917 56.058 C 277.403 55.777,274.477 55.617,272.833 55.780 M286.500 55.788 C 286.362 55.840,286.212 55.937,286.167 56.003 C 285.969 56.286,285.333 56.356,285.333 56.095 C 285.333 55.872,285.038 55.833,283.333 55.833 L 281.333 55.833 281.333 59.157 C 281.333 61.193,281.269 62.520,281.167 62.583 C 281.074 62.641,281.000 63.418,281.000 64.343 L 281.000 66.000 283.058 66.000 L 285.116 66.000 285.212 63.379 C 285.272 61.738,285.375 60.736,285.487 60.699 C 285.586 60.666,285.667 60.560,285.667 60.464 C 285.667 59.901,286.588 59.417,287.667 59.413 L 288.750 59.408 288.803 58.766 C 288.832 58.412,288.776 58.043,288.678 57.945 C 288.580 57.847,288.500 57.294,288.500 56.717 L 288.500 55.667 287.625 55.680 C 287.144 55.687,286.637 55.736,286.500 55.788 M305.042 55.775 C 304.744 55.819,304.500 55.919,304.500 55.997 C 304.500 56.076,304.278 56.189,304.008 56.248 C 303.705 56.315,303.471 56.496,303.402 56.720 C 303.339 56.920,303.206 57.136,303.106 57.200 C 302.803 57.394,302.746 59.857,303.039 60.072 C 303.174 60.171,303.337 60.401,303.401 60.584 C 303.513 60.905,305.022 62.167,305.293 62.167 C 305.468 62.167,306.000 62.792,306.000 62.999 C 306.000 63.450,304.154 63.401,303.243 62.926 C 302.214 62.389,301.959 62.541,302.060 63.625 C 302.266 65.823,302.324 66.000,302.837 66.000 C 303.095 66.000,303.332 66.079,303.364 66.176 C 303.439 66.401,307.672 66.426,307.814 66.202 C 307.871 66.114,308.160 65.989,308.458 65.924 C 308.756 65.860,309.000 65.738,309.000 65.653 C 309.000 65.569,309.112 65.500,309.248 65.500 C 309.751 65.500,310.333 64.250,310.333 63.170 C 310.333 62.612,310.259 62.167,310.167 62.167 C 310.075 62.167,309.998 62.073,309.994 61.958 C 309.988 61.710,309.423 61.003,309.223 60.993 C 309.146 60.989,308.899 60.764,308.674 60.493 C 308.450 60.222,308.166 60.000,308.044 60.000 C 307.922 60.000,307.780 59.887,307.727 59.750 C 307.674 59.612,307.535 59.500,307.417 59.500 C 307.091 59.500,306.966 59.003,307.263 58.889 C 307.554 58.777,309.554 58.919,310.125 59.092 C 310.583 59.231,310.721 56.391,310.274 56.020 C 310.038 55.824,306.003 55.635,305.042 55.775 M315.708 55.777 C 315.410 55.820,315.167 55.925,315.167 56.011 C 315.167 56.096,315.022 56.167,314.845 56.167 C 314.668 56.167,314.421 56.269,314.296 56.395 C 314.170 56.520,313.921 56.669,313.742 56.726 C 313.441 56.822,312.843 57.334,312.398 57.878 C 311.643 58.799,311.166 62.912,311.769 63.298 C 311.871 63.363,312.009 63.589,312.075 63.800 C 312.331 64.620,314.091 66.000,314.881 66.000 C 315.114 66.000,315.332 66.079,315.364 66.177 C 315.439 66.400,319.112 66.418,319.388 66.196 C 319.495 66.109,319.827 65.986,320.125 65.923 C 320.423 65.859,320.667 65.738,320.667 65.653 C 320.667 65.569,320.782 65.500,320.922 65.500 C 321.062 65.500,321.220 65.387,321.273 65.250 C 321.326 65.112,321.440 65.000,321.526 65.000 C 321.741 65.000,322.488 64.132,322.495 63.875 C 322.498 63.760,322.574 63.667,322.665 63.667 C 322.755 63.667,322.877 63.367,322.936 63.000 C 322.995 62.633,323.108 62.333,323.188 62.333 C 323.268 62.333,323.333 61.696,323.333 60.917 C 323.333 60.137,323.268 59.500,323.188 59.500 C 323.108 59.500,322.996 59.211,322.940 58.857 C 322.819 58.101,321.260 56.401,320.527 56.226 C 320.283 56.168,319.986 56.044,319.866 55.949 C 319.638 55.769,316.637 55.645,315.708 55.777 M361.292 55.776 C 361.040 55.820,360.833 55.916,360.833 55.989 C 360.833 56.063,360.573 56.165,360.255 56.217 C 359.937 56.269,359.558 56.410,359.413 56.530 C 357.986 57.719,357.167 58.977,357.167 59.979 C 357.167 60.268,357.077 60.649,356.966 60.825 C 356.814 61.069,356.812 61.239,356.957 61.531 C 357.062 61.743,357.197 62.310,357.256 62.792 C 357.316 63.273,357.433 63.667,357.516 63.667 C 357.599 63.667,357.667 63.782,357.667 63.922 C 357.667 64.062,357.779 64.220,357.917 64.273 C 358.054 64.326,358.167 64.480,358.167 64.617 C 358.167 64.753,358.311 64.902,358.488 64.949 C 358.665 64.995,358.851 65.138,358.900 65.266 C 358.949 65.395,359.104 65.500,359.245 65.500 C 359.385 65.500,359.500 65.572,359.500 65.659 C 359.500 65.747,359.781 65.870,360.125 65.933 C 360.469 65.996,360.794 66.115,360.847 66.197 C 360.975 66.393,364.642 66.392,364.891 66.196 C 364.997 66.112,365.365 65.993,365.708 65.931 C 366.052 65.869,366.333 65.747,366.333 65.659 C 366.333 65.572,366.417 65.500,366.520 65.500 C 366.730 65.500,368.000 64.277,368.000 64.074 C 368.000 64.002,368.115 63.816,368.255 63.661 C 368.395 63.506,368.556 62.994,368.612 62.523 C 368.667 62.052,368.778 61.667,368.857 61.667 C 369.045 61.667,369.043 60.213,368.855 60.097 C 368.776 60.048,368.661 59.631,368.600 59.170 C 368.538 58.710,368.416 58.333,368.328 58.333 C 368.239 58.333,368.166 58.240,368.165 58.125 C 368.163 57.829,367.027 56.667,366.740 56.667 C 366.608 56.667,366.500 56.592,366.500 56.500 C 366.500 56.408,366.406 56.333,366.292 56.332 C 366.177 56.332,365.858 56.210,365.583 56.061 C 365.079 55.788,362.290 55.603,361.292 55.776 M376.250 55.810 C 375.053 56.272,374.833 56.382,374.833 56.516 C 374.833 56.599,374.758 56.667,374.667 56.667 C 374.575 56.667,374.500 56.479,374.500 56.250 L 374.500 55.833 372.510 55.833 C 371.408 55.833,370.475 55.905,370.420 55.995 C 370.365 56.083,370.244 58.127,370.150 60.536 C 370.057 62.945,369.910 64.988,369.823 65.075 C 369.122 65.784,369.592 66.000,371.833 66.000 L 374.000 66.000 374.000 65.177 C 374.000 64.724,374.063 64.314,374.139 64.267 C 374.216 64.220,374.292 63.709,374.309 63.132 C 374.381 60.669,374.807 59.589,375.777 59.403 C 377.200 59.130,377.384 59.606,377.234 63.194 L 377.118 66.000 379.309 66.000 L 381.500 66.000 381.500 63.010 C 381.500 61.196,381.566 59.979,381.667 59.917 C 381.871 59.791,381.890 58.388,381.689 58.264 C 381.610 58.215,381.503 57.916,381.452 57.600 C 381.225 56.202,378.058 55.112,376.250 55.810 M385.625 55.774 C 385.373 55.819,385.167 55.917,385.167 55.993 C 385.167 56.069,384.977 56.178,384.746 56.236 C 384.110 56.396,383.640 56.962,383.543 57.685 C 383.495 58.042,383.391 58.333,383.311 58.333 C 383.123 58.333,383.123 58.953,383.311 59.069 C 383.390 59.118,383.497 59.414,383.547 59.727 C 383.627 60.221,384.632 61.500,384.940 61.500 C 384.992 61.500,385.242 61.669,385.494 61.875 C 385.747 62.081,386.114 62.360,386.310 62.495 C 387.457 63.283,385.327 63.665,383.909 62.926 C 382.850 62.373,382.667 62.518,382.667 63.907 C 382.667 64.589,382.742 65.193,382.833 65.250 C 382.925 65.307,383.000 65.499,383.000 65.677 C 383.000 65.923,383.116 66.000,383.486 66.000 C 383.753 66.000,383.999 66.079,384.031 66.176 C 384.105 66.398,388.336 66.427,388.481 66.207 C 388.537 66.121,388.797 65.999,389.057 65.935 C 389.563 65.811,390.667 64.844,390.667 64.525 C 390.667 64.420,390.742 64.333,390.833 64.333 C 391.084 64.333,391.034 62.603,390.769 62.092 C 390.478 61.532,389.076 60.215,388.185 59.667 C 387.390 59.177,387.347 59.045,387.935 58.897 C 388.411 58.778,390.409 58.908,390.875 59.089 C 391.137 59.191,391.166 59.076,391.164 57.976 C 391.162 56.512,391.058 56.058,390.696 55.919 C 390.348 55.785,386.226 55.667,385.625 55.774 M225.001 56.292 C 225.002 56.544,225.114 56.965,225.251 57.227 C 225.388 57.490,225.500 57.827,225.501 57.977 C 225.502 58.127,225.607 58.451,225.735 58.697 C 225.864 58.943,226.020 59.379,226.083 59.667 C 226.146 59.954,226.303 60.390,226.431 60.636 C 226.560 60.882,226.665 61.252,226.666 61.458 C 226.666 61.665,226.733 61.833,226.814 61.833 C 226.896 61.833,227.013 62.169,227.074 62.579 C 227.136 62.990,227.246 63.363,227.319 63.408 C 227.392 63.453,227.548 63.942,227.666 64.495 C 227.783 65.048,227.944 65.500,228.023 65.500 C 228.300 65.500,228.163 66.344,227.792 66.917 C 227.283 67.703,225.815 67.915,225.063 67.311 C 224.469 66.835,224.117 68.957,224.687 69.575 C 224.768 69.662,224.833 69.906,224.833 70.117 C 224.833 70.540,228.364 70.707,229.630 70.344 C 230.499 70.095,231.998 68.336,232.001 67.564 C 232.002 67.391,232.151 67.025,232.333 66.750 C 232.515 66.475,232.665 66.081,232.666 65.875 C 232.666 65.669,232.736 65.500,232.820 65.500 C 232.904 65.500,233.023 65.275,233.083 65.000 C 233.144 64.725,233.254 64.500,233.328 64.500 C 233.402 64.500,233.512 64.237,233.572 63.917 C 233.633 63.596,233.747 63.333,233.828 63.333 C 233.908 63.333,234.021 63.116,234.080 62.850 C 234.138 62.584,234.332 62.080,234.510 61.731 C 234.688 61.382,234.833 60.962,234.833 60.798 C 234.833 60.634,234.902 60.500,234.987 60.500 C 235.071 60.500,235.190 60.275,235.250 60.000 C 235.310 59.725,235.421 59.500,235.495 59.500 C 235.569 59.500,235.678 59.243,235.737 58.929 C 235.796 58.615,235.898 58.333,235.964 58.304 C 236.133 58.228,236.833 56.470,236.833 56.122 C 236.833 55.864,236.615 55.833,234.774 55.833 L 232.714 55.833 232.340 56.875 C 232.133 57.448,231.927 58.123,231.880 58.375 C 231.834 58.627,231.736 58.833,231.662 58.833 C 231.589 58.833,231.479 59.133,231.417 59.500 C 231.355 59.867,231.240 60.167,231.162 60.167 C 231.084 60.167,230.970 60.504,230.908 60.917 C 230.756 61.928,230.563 61.862,230.424 60.750 C 230.361 60.246,230.249 59.833,230.176 59.833 C 230.103 59.833,229.994 59.440,229.933 58.958 C 229.841 58.218,229.702 57.635,229.238 56.042 C 229.193 55.889,228.616 55.833,227.089 55.833 L 225.000 55.833 225.001 56.292 M330.833 56.550 C 330.833 56.944,330.764 57.338,330.679 57.425 C 330.425 57.685,330.374 64.706,330.625 64.791 C 330.740 64.830,330.833 64.951,330.833 65.060 C 330.833 65.322,331.363 65.768,331.857 65.922 C 332.073 65.990,332.296 66.116,332.351 66.202 C 332.493 66.423,335.728 66.399,335.802 66.176 C 335.835 66.079,336.006 66.000,336.182 66.000 C 336.359 66.000,336.632 65.850,336.789 65.667 C 336.946 65.483,337.132 65.333,337.204 65.333 C 337.275 65.333,337.333 65.483,337.333 65.667 C 337.333 65.981,337.444 66.000,339.254 66.000 C 341.625 66.000,341.420 66.416,341.559 61.318 C 341.618 59.155,341.714 57.034,341.773 56.604 L 341.880 55.823 339.732 55.870 L 337.583 55.917 337.453 58.660 C 337.382 60.169,337.261 61.444,337.184 61.493 C 337.108 61.543,336.990 61.759,336.923 61.974 C 336.670 62.783,335.294 62.971,334.784 62.267 C 334.711 62.166,334.701 60.677,334.762 58.958 L 334.872 55.833 332.853 55.833 L 330.833 55.833 330.833 56.550 M351.592 56.042 C 351.557 56.156,351.482 58.237,351.427 60.667 C 351.371 63.096,351.281 65.290,351.227 65.542 L 351.128 66.000 353.397 66.000 L 355.667 66.000 355.667 63.125 C 355.667 61.544,355.745 59.425,355.841 58.417 C 356.101 55.674,356.230 55.833,353.742 55.833 C 352.219 55.833,351.639 55.890,351.592 56.042 M140.228 58.679 C 141.182 59.430,140.850 59.835,139.292 59.820 C 138.535 59.813,138.010 59.769,138.125 59.723 C 138.240 59.677,138.333 59.516,138.333 59.366 C 138.333 58.570,139.535 58.134,140.228 58.679 M188.482 59.484 C 190.157 61.048,187.964 64.224,186.250 62.717 C 185.723 62.253,185.495 60.325,185.932 60.034 C 186.029 59.969,186.156 59.785,186.215 59.625 C 186.274 59.465,186.438 59.333,186.578 59.333 C 186.718 59.333,186.833 59.258,186.833 59.167 C 186.833 58.785,187.968 59.003,188.482 59.484 M206.915 59.363 C 207.145 59.563,207.333 59.826,207.333 59.947 C 207.333 60.068,207.408 60.167,207.500 60.167 C 207.592 60.167,207.667 60.467,207.667 60.833 C 207.667 61.200,207.600 61.500,207.519 61.500 C 207.437 61.500,207.324 61.744,207.268 62.042 C 207.024 63.326,204.500 63.489,204.500 62.220 C 204.500 62.099,204.425 62.000,204.333 62.000 C 204.242 62.000,204.167 61.663,204.167 61.250 C 204.167 60.837,204.242 60.500,204.333 60.500 C 204.425 60.500,204.500 60.353,204.500 60.173 C 204.500 59.209,206.115 58.668,206.915 59.363 M220.000 60.083 C 220.000 60.694,219.927 61.167,219.833 61.167 C 219.742 61.167,219.667 61.351,219.667 61.576 C 219.667 62.015,218.966 62.833,218.590 62.833 C 218.464 62.833,218.336 62.908,218.306 62.999 C 218.170 63.402,217.004 62.606,216.897 62.039 C 216.673 60.846,217.260 59.333,217.947 59.333 C 218.068 59.333,218.167 59.258,218.167 59.167 C 218.167 59.075,218.579 59.000,219.083 59.000 L 220.000 59.000 220.000 60.083 M318.575 59.557 C 319.016 60.136,319.213 62.000,318.833 62.000 C 318.742 62.000,318.667 62.099,318.667 62.220 C 318.667 63.010,316.964 63.464,316.340 62.840 C 315.685 62.185,315.621 59.975,316.248 59.625 C 316.389 59.546,316.598 59.375,316.711 59.247 C 317.122 58.780,318.107 58.944,318.575 59.557 M363.667 59.167 C 363.667 59.258,363.778 59.333,363.913 59.333 C 364.049 59.333,364.207 59.521,364.265 59.750 C 364.322 59.979,364.436 60.167,364.518 60.167 C 364.600 60.167,364.667 60.504,364.667 60.917 C 364.667 61.329,364.598 61.667,364.513 61.667 C 364.429 61.667,364.311 61.888,364.252 62.159 C 364.191 62.435,364.002 62.696,363.822 62.754 C 363.645 62.810,363.500 62.926,363.500 63.011 C 363.500 63.097,363.241 63.167,362.925 63.167 C 362.347 63.167,361.500 62.586,361.500 62.189 C 361.500 62.085,361.425 62.000,361.333 62.000 C 361.242 62.000,361.167 61.663,361.167 61.250 C 361.167 60.837,361.236 60.500,361.320 60.500 C 361.404 60.500,361.519 60.293,361.575 60.040 C 361.731 59.327,363.667 58.519,363.667 59.167 " stroke="none" fill="#04ab5c" fill-rule="evenodd"></path><path id="path2" d="M175.803 2.250 C 176.075 2.479,176.349 2.667,176.412 2.667 C 176.474 2.667,176.303 2.479,176.030 2.250 C 175.758 2.021,175.484 1.833,175.421 1.833 C 175.359 1.833,175.531 2.021,175.803 2.250 M212.083 2.667 L 201.917 2.754 212.032 2.794 C 218.639 2.820,222.183 2.776,222.250 2.667 C 222.307 2.575,222.330 2.518,222.302 2.540 C 222.273 2.562,217.675 2.619,212.083 2.667 M47.208 2.792 C 49.844 2.817,54.156 2.817,56.792 2.792 C 59.427 2.766,57.271 2.745,52.000 2.745 C 46.729 2.745,44.573 2.766,47.208 2.792 M113.968 2.791 C 115.280 2.820,117.380 2.819,118.635 2.791 C 119.890 2.763,118.817 2.740,116.250 2.740 C 113.683 2.740,112.657 2.763,113.968 2.791 M73.833 8.250 C 74.049 8.479,74.253 8.667,74.287 8.667 C 74.425 8.667,73.738 7.843,73.596 7.839 C 73.511 7.836,73.618 8.021,73.833 8.250 M201.074 14.167 C 201.074 17.054,201.097 18.235,201.125 16.792 C 201.152 15.348,201.152 12.985,201.125 11.542 C 201.097 10.098,201.074 11.279,201.074 14.167 M325.667 10.731 C 325.667 10.767,325.888 10.828,326.158 10.868 C 326.428 10.907,326.611 10.878,326.565 10.803 C 326.482 10.670,325.667 10.604,325.667 10.731 M151.716 11.291 C 152.431 11.322,153.556 11.322,154.216 11.290 C 154.876 11.259,154.292 11.233,152.917 11.233 C 151.542 11.234,151.001 11.259,151.716 11.291 M248.362 11.292 C 254.290 11.316,264.040 11.316,270.029 11.292 C 276.017 11.267,271.167 11.248,259.250 11.248 C 247.333 11.248,242.434 11.267,248.362 11.292 M353.292 11.292 C 355.973 11.317,360.360 11.317,363.042 11.292 C 365.723 11.266,363.529 11.245,358.167 11.245 C 352.804 11.245,350.610 11.266,353.292 11.292 M393.715 11.290 C 394.338 11.323,395.313 11.322,395.882 11.290 C 396.451 11.257,395.942 11.231,394.750 11.231 C 393.558 11.232,393.093 11.258,393.715 11.290 M345.111 14.444 C 344.928 14.628,344.978 47.134,345.162 47.247 C 345.266 47.312,345.326 41.481,345.331 30.840 C 345.335 21.761,345.312 14.333,345.280 14.333 C 345.248 14.333,345.172 14.383,345.111 14.444 M88.000 16.614 C 90.588 16.731,96.962 16.739,96.891 16.625 C 96.849 16.556,94.587 16.515,91.865 16.533 C 89.143 16.551,87.404 16.587,88.000 16.614 M167.458 16.625 C 168.765 16.653,170.902 16.653,172.208 16.625 C 173.515 16.596,172.446 16.573,169.833 16.573 C 167.221 16.573,166.152 16.596,167.458 16.625 M186.741 23.167 C 186.741 26.238,186.764 27.494,186.791 25.958 C 186.819 24.423,186.819 21.910,186.791 20.375 C 186.764 18.840,186.741 20.096,186.741 23.167 M295.912 36.750 C 295.912 42.342,295.933 44.605,295.958 41.780 C 295.984 38.954,295.984 34.379,295.958 31.613 C 295.933 28.847,295.912 31.158,295.912 36.750 M20.387 28.833 C 20.387 29.429,20.417 29.673,20.454 29.375 C 20.491 29.077,20.491 28.590,20.454 28.292 C 20.417 27.994,20.387 28.238,20.387 28.833 M186.739 42.583 C 186.739 44.875,186.762 45.836,186.791 44.718 C 186.820 43.600,186.820 41.725,186.791 40.551 C 186.763 39.377,186.739 40.292,186.739 42.583 M221.158 46.125 L 220.583 46.750 221.208 46.176 C 221.552 45.860,221.833 45.578,221.833 45.551 C 221.833 45.423,221.692 45.543,221.158 46.125 " stroke="none" fill="#04a0e0" fill-rule="evenodd"></path><path id="path3" d="M175.803 2.250 C 176.075 2.479,176.349 2.667,176.412 2.667 C 176.474 2.667,176.303 2.479,176.030 2.250 C 175.758 2.021,175.484 1.833,175.421 1.833 C 175.359 1.833,175.531 2.021,175.803 2.250 M212.083 2.667 L 201.917 2.754 212.032 2.794 C 218.639 2.820,222.183 2.776,222.250 2.667 C 222.307 2.575,222.330 2.518,222.302 2.540 C 222.273 2.562,217.675 2.619,212.083 2.667 M47.208 2.792 C 49.844 2.817,54.156 2.817,56.792 2.792 C 59.427 2.766,57.271 2.745,52.000 2.745 C 46.729 2.745,44.573 2.766,47.208 2.792 M113.968 2.791 C 115.280 2.820,117.380 2.819,118.635 2.791 C 119.890 2.763,118.817 2.740,116.250 2.740 C 113.683 2.740,112.657 2.763,113.968 2.791 M73.833 8.250 C 74.049 8.479,74.253 8.667,74.287 8.667 C 74.425 8.667,73.738 7.843,73.596 7.839 C 73.511 7.836,73.618 8.021,73.833 8.250 M201.074 14.167 C 201.074 17.054,201.097 18.235,201.125 16.792 C 201.152 15.348,201.152 12.985,201.125 11.542 C 201.097 10.098,201.074 11.279,201.074 14.167 M325.667 10.731 C 325.667 10.767,325.888 10.828,326.158 10.868 C 326.428 10.907,326.611 10.878,326.565 10.803 C 326.482 10.670,325.667 10.604,325.667 10.731 M151.716 11.291 C 152.431 11.322,153.556 11.322,154.216 11.290 C 154.876 11.259,154.292 11.233,152.917 11.233 C 151.542 11.234,151.001 11.259,151.716 11.291 M248.362 11.292 C 254.290 11.316,264.040 11.316,270.029 11.292 C 276.017 11.267,271.167 11.248,259.250 11.248 C 247.333 11.248,242.434 11.267,248.362 11.292 M353.292 11.292 C 355.973 11.317,360.360 11.317,363.042 11.292 C 365.723 11.266,363.529 11.245,358.167 11.245 C 352.804 11.245,350.610 11.266,353.292 11.292 M393.715 11.290 C 394.338 11.323,395.313 11.322,395.882 11.290 C 396.451 11.257,395.942 11.231,394.750 11.231 C 393.558 11.232,393.093 11.258,393.715 11.290 M345.111 14.444 C 344.928 14.628,344.978 47.134,345.162 47.247 C 345.266 47.312,345.326 41.481,345.331 30.840 C 345.335 21.761,345.312 14.333,345.280 14.333 C 345.248 14.333,345.172 14.383,345.111 14.444 M88.000 16.614 C 90.588 16.731,96.962 16.739,96.891 16.625 C 96.849 16.556,94.587 16.515,91.865 16.533 C 89.143 16.551,87.404 16.587,88.000 16.614 M167.458 16.625 C 168.765 16.653,170.902 16.653,172.208 16.625 C 173.515 16.596,172.446 16.573,169.833 16.573 C 167.221 16.573,166.152 16.596,167.458 16.625 M186.741 23.167 C 186.741 26.238,186.764 27.494,186.791 25.958 C 186.819 24.423,186.819 21.910,186.791 20.375 C 186.764 18.840,186.741 20.096,186.741 23.167 M295.912 36.750 C 295.912 42.342,295.933 44.605,295.958 41.780 C 295.984 38.954,295.984 34.379,295.958 31.613 C 295.933 28.847,295.912 31.158,295.912 36.750 M20.387 28.833 C 20.387 29.429,20.417 29.673,20.454 29.375 C 20.491 29.077,20.491 28.590,20.454 28.292 C 20.417 27.994,20.387 28.238,20.387 28.833 M186.739 42.583 C 186.739 44.875,186.762 45.836,186.791 44.718 C 186.820 43.600,186.820 41.725,186.791 40.551 C 186.763 39.377,186.739 40.292,186.739 42.583 M221.158 46.125 L 220.583 46.750 221.208 46.176 C 221.552 45.860,221.833 45.578,221.833 45.551 C 221.833 45.423,221.692 45.543,221.158 46.125 " stroke="none" fill="#04a0e0" fill-rule="evenodd"></path><path id="path4" d="M175.803 2.250 C 176.075 2.479,176.349 2.667,176.412 2.667 C 176.474 2.667,176.303 2.479,176.030 2.250 C 175.758 2.021,175.484 1.833,175.421 1.833 C 175.359 1.833,175.531 2.021,175.803 2.250 M212.083 2.667 L 201.917 2.754 212.032 2.794 C 218.639 2.820,222.183 2.776,222.250 2.667 C 222.307 2.575,222.330 2.518,222.302 2.540 C 222.273 2.562,217.675 2.619,212.083 2.667 M47.208 2.792 C 49.844 2.817,54.156 2.817,56.792 2.792 C 59.427 2.766,57.271 2.745,52.000 2.745 C 46.729 2.745,44.573 2.766,47.208 2.792 M113.968 2.791 C 115.280 2.820,117.380 2.819,118.635 2.791 C 119.890 2.763,118.817 2.740,116.250 2.740 C 113.683 2.740,112.657 2.763,113.968 2.791 M73.833 8.250 C 74.049 8.479,74.253 8.667,74.287 8.667 C 74.425 8.667,73.738 7.843,73.596 7.839 C 73.511 7.836,73.618 8.021,73.833 8.250 M201.074 14.167 C 201.074 17.054,201.097 18.235,201.125 16.792 C 201.152 15.348,201.152 12.985,201.125 11.542 C 201.097 10.098,201.074 11.279,201.074 14.167 M325.667 10.731 C 325.667 10.767,325.888 10.828,326.158 10.868 C 326.428 10.907,326.611 10.878,326.565 10.803 C 326.482 10.670,325.667 10.604,325.667 10.731 M151.716 11.291 C 152.431 11.322,153.556 11.322,154.216 11.290 C 154.876 11.259,154.292 11.233,152.917 11.233 C 151.542 11.234,151.001 11.259,151.716 11.291 M248.362 11.292 C 254.290 11.316,264.040 11.316,270.029 11.292 C 276.017 11.267,271.167 11.248,259.250 11.248 C 247.333 11.248,242.434 11.267,248.362 11.292 M353.292 11.292 C 355.973 11.317,360.360 11.317,363.042 11.292 C 365.723 11.266,363.529 11.245,358.167 11.245 C 352.804 11.245,350.610 11.266,353.292 11.292 M393.715 11.290 C 394.338 11.323,395.313 11.322,395.882 11.290 C 396.451 11.257,395.942 11.231,394.750 11.231 C 393.558 11.232,393.093 11.258,393.715 11.290 M345.111 14.444 C 344.928 14.628,344.978 47.134,345.162 47.247 C 345.266 47.312,345.326 41.481,345.331 30.840 C 345.335 21.761,345.312 14.333,345.280 14.333 C 345.248 14.333,345.172 14.383,345.111 14.444 M88.000 16.614 C 90.588 16.731,96.962 16.739,96.891 16.625 C 96.849 16.556,94.587 16.515,91.865 16.533 C 89.143 16.551,87.404 16.587,88.000 16.614 M167.458 16.625 C 168.765 16.653,170.902 16.653,172.208 16.625 C 173.515 16.596,172.446 16.573,169.833 16.573 C 167.221 16.573,166.152 16.596,167.458 16.625 M186.741 23.167 C 186.741 26.238,186.764 27.494,186.791 25.958 C 186.819 24.423,186.819 21.910,186.791 20.375 C 186.764 18.840,186.741 20.096,186.741 23.167 M295.912 36.750 C 295.912 42.342,295.933 44.605,295.958 41.780 C 295.984 38.954,295.984 34.379,295.958 31.613 C 295.933 28.847,295.912 31.158,295.912 36.750 M20.387 28.833 C 20.387 29.429,20.417 29.673,20.454 29.375 C 20.491 29.077,20.491 28.590,20.454 28.292 C 20.417 27.994,20.387 28.238,20.387 28.833 M186.739 42.583 C 186.739 44.875,186.762 45.836,186.791 44.718 C 186.820 43.600,186.820 41.725,186.791 40.551 C 186.763 39.377,186.739 40.292,186.739 42.583 M221.158 46.125 L 220.583 46.750 221.208 46.176 C 221.552 45.860,221.833 45.578,221.833 45.551 C 221.833 45.423,221.692 45.543,221.158 46.125 " stroke="none" fill="#04a0e0" fill-rule="evenodd"></path></g></svg>